<svg width="224" height="115" viewBox="0 0 224 115" fill="none" xmlns="http://www.w3.org/2000/svg">
<rect y="36" width="2" height="2" fill="#555555"/>
<rect y="24" width="2" height="2" fill="#555555"/>
<rect y="12" width="2" height="2" fill="#555555"/>
<rect width="2" height="2" fill="#555555"/>
<rect x="18" y="36" width="2" height="2" fill="#555555"/>
<rect x="18" y="24" width="2" height="2" fill="#555555"/>
<rect x="18" y="12" width="2" height="2" fill="#555555"/>
<rect x="18" width="2" height="2" fill="#555555"/>
<rect y="48" width="2" height="2" fill="#555555"/>
<rect x="18" y="48" width="2" height="2" fill="#555555"/>
<rect y="60" width="2" height="2" fill="#555555"/>
<rect x="18" y="60" width="2" height="2" fill="#555555"/>
<rect y="72" width="2" height="2" fill="#555555"/>
<rect x="18" y="72" width="2" height="2" fill="#555555"/>
<rect y="84" width="2" height="2" fill="#555555"/>
<rect x="18" y="84" width="2" height="2" fill="#555555"/>
<rect y="96" width="2" height="2" fill="#555555"/>
<rect x="18" y="96" width="2" height="2" fill="#555555"/>
<rect x="35" y="96" width="2" height="2" fill="#555555"/>
<rect x="52" y="96" width="2" height="2" fill="#555555"/>
<rect x="69" y="96" width="2" height="2" fill="#555555"/>
<rect x="86" y="96" width="2" height="2" fill="#555555"/>
<rect x="103" y="96" width="2" height="2" fill="#555555"/>
<rect x="120" y="96" width="2" height="2" fill="#555555"/>
<rect x="137" y="96" width="2" height="2" fill="#555555"/>
<rect x="154" y="96" width="2" height="2" fill="#555555"/>
<rect x="171" y="96" width="2" height="2" fill="#555555"/>
<rect x="188" y="96" width="2" height="2" fill="#555555"/>
<rect x="205" y="96" width="2" height="2" fill="#555555"/>
<rect x="222" y="96" width="2" height="2" fill="#555555"/>
<rect x="1" y="113" width="2" height="2" fill="#555555"/>
<rect x="16" y="113" width="2" height="2" fill="#555555"/>
<rect x="33" y="113" width="2" height="2" fill="#555555"/>
<rect x="50" y="113" width="2" height="2" fill="#555555"/>
<rect x="67" y="113" width="2" height="2" fill="#555555"/>
<rect x="84" y="113" width="2" height="2" fill="#555555"/>
<rect x="101" y="113" width="2" height="2" fill="#555555"/>
<rect x="118" y="113" width="2" height="2" fill="#555555"/>
<rect x="135" y="113" width="2" height="2" fill="#555555"/>
<rect x="152" y="113" width="2" height="2" fill="#555555"/>
<rect x="169" y="113" width="2" height="2" fill="#555555"/>
<rect x="186" y="113" width="2" height="2" fill="#555555"/>
<rect x="203" y="113" width="2" height="2" fill="#555555"/>
<rect x="220" y="113" width="2" height="2" fill="#555555"/>
</svg>
