<svg width="224" height="115" viewBox="0 0 224 115" fill="none" xmlns="http://www.w3.org/2000/svg">
<rect x="224" y="79" width="2" height="2" transform="rotate(-180 224 79)" fill="#555555"/>
<rect x="224" y="91" width="2" height="2" transform="rotate(-180 224 91)" fill="#555555"/>
<rect x="224" y="103" width="2" height="2" transform="rotate(-180 224 103)" fill="#555555"/>
<rect x="224" y="115" width="2" height="2" transform="rotate(-180 224 115)" fill="#555555"/>
<rect x="206" y="79" width="2" height="2" transform="rotate(-180 206 79)" fill="#555555"/>
<rect x="206" y="91" width="2" height="2" transform="rotate(-180 206 91)" fill="#555555"/>
<rect x="206" y="103" width="2" height="2" transform="rotate(-180 206 103)" fill="#555555"/>
<rect x="206" y="115" width="2" height="2" transform="rotate(-180 206 115)" fill="#555555"/>
<rect x="224" y="67" width="2" height="2" transform="rotate(-180 224 67)" fill="#555555"/>
<rect x="206" y="67" width="2" height="2" transform="rotate(-180 206 67)" fill="#555555"/>
<rect x="224" y="55" width="2" height="2" transform="rotate(-180 224 55)" fill="#555555"/>
<rect x="206" y="55" width="2" height="2" transform="rotate(-180 206 55)" fill="#555555"/>
<rect x="224" y="43" width="2" height="2" transform="rotate(-180 224 43)" fill="#555555"/>
<rect x="206" y="43" width="2" height="2" transform="rotate(-180 206 43)" fill="#555555"/>
<rect x="224" y="31" width="2" height="2" transform="rotate(-180 224 31)" fill="#555555"/>
<rect x="206" y="31" width="2" height="2" transform="rotate(-180 206 31)" fill="#555555"/>
<rect x="224" y="19" width="2" height="2" transform="rotate(-180 224 19)" fill="#555555"/>
<rect x="206" y="19" width="2" height="2" transform="rotate(-180 206 19)" fill="#555555"/>
<rect x="189" y="19" width="2" height="2" transform="rotate(-180 189 19)" fill="#555555"/>
<rect x="172" y="19" width="2" height="2" transform="rotate(-180 172 19)" fill="#555555"/>
<rect x="155" y="19" width="2" height="2" transform="rotate(-180 155 19)" fill="#555555"/>
<rect x="138" y="19" width="2" height="2" transform="rotate(-180 138 19)" fill="#555555"/>
<rect x="121" y="19" width="2" height="2" transform="rotate(-180 121 19)" fill="#555555"/>
<rect x="104" y="19" width="2" height="2" transform="rotate(-180 104 19)" fill="#555555"/>
<rect x="87" y="19" width="2" height="2" transform="rotate(-180 87 19)" fill="#555555"/>
<rect x="70" y="19" width="2" height="2" transform="rotate(-180 70 19)" fill="#555555"/>
<rect x="53" y="19" width="2" height="2" transform="rotate(-180 53 19)" fill="#555555"/>
<rect x="36" y="19" width="2" height="2" transform="rotate(-180 36 19)" fill="#555555"/>
<rect x="19" y="19" width="2" height="2" transform="rotate(-180 19 19)" fill="#555555"/>
<rect x="2" y="19" width="2" height="2" transform="rotate(-180 2 19)" fill="#555555"/>
<rect x="223" y="2" width="2" height="2" transform="rotate(-180 223 2)" fill="#555555"/>
<rect x="208" y="2" width="2" height="2" transform="rotate(-180 208 2)" fill="#555555"/>
<rect x="191" y="2" width="2" height="2" transform="rotate(-180 191 2)" fill="#555555"/>
<rect x="174" y="1.99999" width="2" height="2" transform="rotate(-180 174 1.99999)" fill="#555555"/>
<rect x="157" y="1.99999" width="2" height="2" transform="rotate(-180 157 1.99999)" fill="#555555"/>
<rect x="140" y="1.99999" width="2" height="2" transform="rotate(-180 140 1.99999)" fill="#555555"/>
<rect x="123" y="1.99999" width="2" height="2" transform="rotate(-180 123 1.99999)" fill="#555555"/>
<rect x="106" y="1.99999" width="2" height="2" transform="rotate(-180 106 1.99999)" fill="#555555"/>
<rect x="89" y="1.99998" width="2" height="2" transform="rotate(-180 89 1.99998)" fill="#555555"/>
<rect x="72" y="1.99998" width="2" height="2" transform="rotate(-180 72 1.99998)" fill="#555555"/>
<rect x="55" y="1.99998" width="2" height="2" transform="rotate(-180 55 1.99998)" fill="#555555"/>
<rect x="38" y="1.99998" width="2" height="2" transform="rotate(-180 38 1.99998)" fill="#555555"/>
<rect x="21" y="1.99998" width="2" height="2" transform="rotate(-180 21 1.99998)" fill="#555555"/>
<rect x="4" y="1.99998" width="2" height="2" transform="rotate(-180 4 1.99998)" fill="#555555"/>
</svg>
