<svg width="50" height="50" viewBox="0 0 50 50" fill="none" xmlns="http://www.w3.org/2000/svg">
<g clip-path="url(#clip0_190_116)">
<path d="M25 46.875C19.1984 46.875 13.6344 44.5703 9.53204 40.468C5.42968 36.3656 3.125 30.8016 3.125 25C3.125 19.1984 5.42968 13.6344 9.53204 9.53204C13.6344 5.42968 19.1984 3.125 25 3.125C30.8016 3.125 36.3656 5.42968 40.468 9.53204C44.5703 13.6344 46.875 19.1984 46.875 25C46.875 30.8016 44.5703 36.3656 40.468 40.468C36.3656 44.5703 30.8016 46.875 25 46.875ZM25 50C31.6304 50 37.9893 47.3661 42.6777 42.6777C47.3661 37.9893 50 31.6304 50 25C50 18.3696 47.3661 12.0107 42.6777 7.32233C37.9893 2.63392 31.6304 0 25 0C18.3696 0 12.0107 2.63392 7.32233 7.32233C2.63392 12.0107 0 18.3696 0 25C0 31.6304 2.63392 37.9893 7.32233 42.6777C12.0107 47.3661 18.3696 50 25 50Z" fill="#C8C8C8"/>
<path d="M13.3905 29.8969C13.7493 29.6897 14.1758 29.6335 14.5761 29.7408C14.9764 29.848 15.3176 30.1099 15.5248 30.4687C16.4846 32.1323 17.8656 33.5136 19.529 34.4737C21.1924 35.4338 23.0793 35.9386 24.9998 35.9375C26.9204 35.9386 28.8073 35.4338 30.4707 34.4737C32.1341 33.5136 33.5151 32.1323 34.4748 30.4687C34.5767 30.2896 34.713 30.1324 34.8758 30.0061C35.0387 29.8799 35.2249 29.7871 35.4238 29.7331C35.6226 29.6791 35.8302 29.665 36.0345 29.6916C36.2389 29.7181 36.436 29.7848 36.6144 29.8879C36.7929 29.9909 36.9492 30.1282 37.0744 30.2919C37.1995 30.4556 37.2911 30.6424 37.3437 30.8416C37.3964 31.0409 37.4092 31.2485 37.3812 31.4527C37.3533 31.6569 37.2853 31.8535 37.1811 32.0312C35.9471 34.1699 34.1716 35.9457 32.0331 37.18C29.8947 38.4143 27.4689 39.0636 24.9998 39.0625C22.5308 39.0636 20.1049 38.4143 17.9665 37.18C15.8281 35.9457 14.0526 34.1699 12.8186 32.0312C12.6114 31.6724 12.5552 31.2459 12.6625 30.8456C12.7697 30.4454 13.0316 30.1041 13.3905 29.8969ZM21.8748 20.3125C21.8748 22.9 20.4748 25 18.7498 25C17.0248 25 15.6248 22.9 15.6248 20.3125C15.6248 17.725 17.0248 15.625 18.7498 15.625C20.4748 15.625 21.8748 17.725 21.8748 20.3125ZM27.3655 18.9469C27.5448 18.8471 27.742 18.7837 27.9459 18.7602C28.1497 18.7367 28.3562 18.7536 28.5535 18.8099C28.7509 18.8662 28.9352 18.9608 29.0959 19.0883C29.2567 19.2158 29.3907 19.3738 29.4905 19.5531C29.7372 20.0139 30.1032 20.3999 30.5501 20.6709C30.997 20.9419 31.5085 21.088 32.0311 21.0937C33.0905 21.0937 34.0467 20.5 34.5717 19.5531C34.7731 19.1909 35.1101 18.9236 35.5087 18.8099C35.9072 18.6962 36.3345 18.7455 36.6967 18.9469C37.0589 19.1483 37.3263 19.4853 37.4399 19.8838C37.5536 20.2823 37.5044 20.7097 37.303 21.0719C36.7854 22.0195 36.0235 22.8112 35.0964 23.3646C34.1693 23.918 33.1108 24.213 32.0311 24.2187C29.7498 24.2187 27.7936 22.9312 26.7592 21.0719C26.6595 20.8925 26.5961 20.6953 26.5725 20.4915C26.549 20.2876 26.5659 20.0811 26.6222 19.8838C26.6785 19.6865 26.7731 19.5022 26.9007 19.3414C27.0282 19.1807 27.1861 19.0466 27.3655 18.9469Z" fill="#C8C8C8"/>
</g>
<defs>
<clipPath id="clip0_190_116">
<rect width="50" height="50" fill="white"/>
</clipPath>
</defs>
</svg>
