<svg width="50" height="50" viewBox="0 0 50 50" fill="none" xmlns="http://www.w3.org/2000/svg">
<g clip-path="url(#clip0_519_35)">
<path d="M25 46.875C19.1984 46.875 13.6344 44.5703 9.53204 40.468C5.42968 36.3656 3.125 30.8016 3.125 25C3.125 19.1984 5.42968 13.6344 9.53204 9.53204C13.6344 5.42968 19.1984 3.125 25 3.125C30.8016 3.125 36.3656 5.42968 40.468 9.53204C44.5703 13.6344 46.875 19.1984 46.875 25C46.875 30.8016 44.5703 36.3656 40.468 40.468C36.3656 44.5703 30.8016 46.875 25 46.875ZM25 50C31.6304 50 37.9893 47.3661 42.6777 42.6777C47.3661 37.9893 50 31.6304 50 25C50 18.3696 47.3661 12.0107 42.6777 7.32233C37.9893 2.63392 31.6304 0 25 0C18.3696 0 12.0107 2.63392 7.32233 7.32233C2.63392 12.0107 0 18.3696 0 25C0 31.6304 2.63392 37.9893 7.32233 42.6777C12.0107 47.3661 18.3696 50 25 50Z" fill="#17181A"/>
<path d="M13.3906 29.8969C13.7495 29.6897 14.1759 29.6335 14.5762 29.7408C14.9765 29.848 15.3177 30.1099 15.525 30.4687C16.4847 32.1323 17.8657 33.5136 19.5291 34.4737C21.1925 35.4338 23.0794 35.9386 25 35.9375C26.9205 35.9386 28.8074 35.4338 30.4708 34.4737C32.1342 33.5136 33.5152 32.1323 34.475 30.4687C34.5768 30.2896 34.7131 30.1324 34.8759 30.0061C35.0388 29.8799 35.225 29.7871 35.4239 29.7331C35.6227 29.6791 35.8303 29.665 36.0347 29.6916C36.239 29.7181 36.4361 29.7848 36.6145 29.8879C36.793 29.9909 36.9493 30.1282 37.0745 30.2919C37.1996 30.4556 37.2912 30.6424 37.3439 30.8416C37.3965 31.0409 37.4093 31.2485 37.3814 31.4527C37.3535 31.6569 37.2854 31.8535 37.1812 32.0312C35.9472 34.1699 34.1717 35.9457 32.0333 37.18C29.8949 38.4143 27.469 39.0636 25 39.0625C22.5309 39.0636 20.1051 38.4143 17.9667 37.18C15.8282 35.9457 14.0527 34.1699 12.8187 32.0312C12.6115 31.6724 12.5554 31.2459 12.6626 30.8456C12.7699 30.4454 13.0317 30.1041 13.3906 29.8969ZM21.875 20.3125C21.875 22.9 20.475 25 18.75 25C17.025 25 15.625 22.9 15.625 20.3125C15.625 17.725 17.025 15.625 18.75 15.625C20.475 15.625 21.875 17.725 21.875 20.3125ZM27.3656 18.9469C27.5449 18.8471 27.7421 18.7837 27.946 18.7602C28.1498 18.7367 28.3563 18.7536 28.5536 18.8099C28.751 18.8662 28.9353 18.9608 29.096 19.0883C29.2568 19.2158 29.3909 19.3738 29.4906 19.5531C29.7373 20.0139 30.1033 20.3999 30.5502 20.6709C30.9971 20.9419 31.5086 21.088 32.0312 21.0937C33.0906 21.0937 34.0468 20.5 34.5718 19.5531C34.7732 19.1909 35.1103 18.9236 35.5088 18.8099C35.9073 18.6962 36.3347 18.7455 36.6968 18.9469C37.059 19.1483 37.3264 19.4853 37.4401 19.8838C37.5538 20.2823 37.5045 20.7097 37.3031 21.0719C36.7856 22.0195 36.0236 22.8112 35.0965 23.3646C34.1694 23.918 33.1109 24.213 32.0312 24.2187C29.75 24.2187 27.7937 22.9312 26.7593 21.0719C26.6596 20.8925 26.5962 20.6953 26.5727 20.4915C26.5492 20.2876 26.566 20.0811 26.6223 19.8838C26.6786 19.6865 26.7732 19.5022 26.9008 19.3414C27.0283 19.1807 27.1862 19.0466 27.3656 18.9469Z" fill="#17181A"/>
</g>
<defs>
<clipPath id="clip0_519_35">
<rect width="50" height="50" fill="white"/>
</clipPath>
</defs>
</svg>
