<svg width="50" height="48" viewBox="0 0 50 48" fill="none" xmlns="http://www.w3.org/2000/svg">
<path d="M49.2676 40.2009C48.863 40.2009 48.5352 40.5289 48.5352 40.9334V45.8272C48.5352 45.8952 48.4799 45.9505 48.4118 45.9505H45.6288V35.2497C45.6288 34.8452 45.301 34.5173 44.8964 34.5173C44.4918 34.5173 44.164 34.8452 44.164 35.2497V45.9506H38.7861L40.2416 44.3494C40.4664 44.102 40.5724 43.7507 40.5252 43.4096C40.5241 43.4023 40.5231 43.3951 40.5218 43.3878L38.8856 33.7202L39.1866 33.267L39.2651 33.3226C39.5335 33.5134 39.8759 33.5829 40.2071 33.5002C40.5324 33.4188 40.805 33.2 40.9548 32.9V32.8999L42.6197 29.5629L46.423 31.0358C46.5731 31.1011 48.5348 32.0006 48.5348 34.341V37.5152C48.5349 37.9198 48.8627 38.2477 49.2673 38.2477C49.6719 38.2477 49.9997 37.9198 49.9997 37.5153V34.3411C49.9997 30.9612 47.1008 29.7307 46.9774 29.6799C46.9728 29.6779 46.9682 29.6761 46.9635 29.6743L40.4872 27.1661V25.8321C41.4982 25.0188 42.2081 23.8467 42.4213 22.5105C42.9255 22.4472 43.3933 22.2453 43.7815 21.9114C44.3381 21.4327 44.6575 20.7361 44.6575 20.0005C44.6575 19.4133 44.4537 18.8514 44.0888 18.4051V16.4287C44.0888 12.561 40.9421 9.41439 37.0745 9.41439C35.3381 9.41439 33.7483 10.0499 32.522 11.099C32.5062 10.5377 32.3053 10.003 31.9552 9.57484V7.59857C31.9552 3.7308 28.8085 0.584229 24.941 0.584229C21.0732 0.584229 17.9266 3.7309 17.9266 7.59857V9.6264C17.5746 10.0471 17.3776 10.5543 17.3602 11.0927C16.5778 10.4241 15.6414 9.92064 14.5977 9.64583C14.2059 9.54271 13.8058 9.7764 13.7028 10.1676C13.5998 10.5588 13.8334 10.9595 14.2246 11.0625C16.6575 11.7032 18.3567 13.9099 18.3567 16.4286V17.524C18.3251 17.5175 18.2235 17.5 18.2196 17.4994C18.2096 17.2927 18.1573 17.1664 18.0446 17.0043C17.8571 16.7349 17.5204 16.3992 16.4374 15.2352C16.0514 14.8206 15.4272 14.7446 14.9534 15.0543C13.0984 16.266 10.8448 16.8836 8.7534 16.7609C8.07215 16.7209 7.64667 17.0202 7.46532 17.5108C7.44911 17.5134 7.26795 17.5499 7.2579 17.5524V16.4286C7.2579 14 8.88074 11.8152 11.2043 11.1153C11.5916 10.9987 11.811 10.5901 11.6944 10.2027C11.5777 9.81527 11.1685 9.59583 10.7817 9.71263C9.36863 10.1382 8.09842 11.0243 7.20536 12.2075C6.28124 13.4316 5.79286 14.8912 5.79286 16.4287V18.4567C5.42392 18.8975 5.2244 19.4332 5.2244 20.0005C5.2244 21.2544 6.14823 22.348 7.46444 22.511C7.68006 23.816 8.38807 25.0675 9.50545 25.9184V27.1665L3.03642 29.6745C3.03183 29.6763 3.02724 29.6781 3.02265 29.68C2.89902 29.7307 0 30.9611 0 34.341V45.8272C0 46.7031 0.712499 47.4155 1.58838 47.4155H24.1441C24.4593 47.4155 24.7526 47.322 25.0001 47.163C25.2473 47.322 25.5407 47.4155 25.856 47.4155H48.4118C49.2876 47.4155 50.0001 46.7031 50.0001 45.8272V40.9334C50 40.5289 49.6722 40.2009 49.2676 40.2009ZM7.39276 20.9977C6.96337 20.8418 6.68905 20.4446 6.68905 20.0003C6.68905 19.5693 7.00155 19.2152 7.39276 19.0472V20.9977ZM41.2479 29.0315L39.8102 31.913C39.81 31.9128 38.2132 30.7787 38.1906 30.7626C38.8794 29.9122 38.5558 30.3117 39.9882 28.5437L41.2479 29.0315ZM37.1318 29.7423L35.2375 27.4041V26.7015C35.8533 26.9144 36.5165 27.0126 37.1408 27.0128C37.1409 27.0128 37.1411 27.0128 37.1412 27.0128H37.1413C37.7868 27.0127 38.4404 26.8901 39.0224 26.6711V27.4086L37.1318 29.7423ZM37.9917 32.4183L37.7223 32.8239H36.5415L36.2721 32.4183L37.132 31.8077L37.9917 32.4183ZM24.9981 20.912L23.1039 18.5738V17.8712C23.7171 18.0832 24.3797 18.1823 25.0072 18.1825C25.0073 18.1825 25.0075 18.1825 25.0076 18.1825H25.0077C25.652 18.1825 26.3054 18.0604 26.8887 17.8409V18.5783L24.9981 20.912ZM25.858 23.5883L25.5885 23.9938H24.4078L24.1383 23.5883L24.9982 22.9776L25.858 23.5883ZM19.2302 13.6106C19.35 13.6432 19.473 13.6654 19.5979 13.6808C19.8135 14.9858 20.5215 16.2372 21.6389 17.0881V18.3362L20.1447 18.9154C20.0581 18.7335 19.9498 18.5621 19.8213 18.405V16.4287C19.8213 15.4348 19.6119 14.4793 19.2302 13.6106ZM28.8902 12.835C28.8902 14.9788 27.1414 16.7174 25.0077 16.7174C22.6003 16.7174 20.9916 14.8517 20.9916 12.835V9.40413C23.3043 9.49671 25.707 8.81126 27.6713 7.58861C28.3318 8.29681 28.7248 8.70824 28.8903 8.89925C28.8902 10.7228 28.8902 11.4269 28.8902 12.835ZM30.2877 13.6803C30.412 13.6647 30.5344 13.6424 30.6535 13.6099C30.273 14.4732 30.0601 15.4263 30.0601 16.4287V18.4566C29.9475 18.591 29.8506 18.7343 29.7705 18.8846L28.3537 18.336V17.002C29.3645 16.1886 30.0746 15.0164 30.2877 13.6803ZM22.1391 19.7147L23.9372 21.934L22.711 22.8049C22.7103 22.8054 22.7098 22.8059 22.7091 22.8064L22.32 23.0828L20.8822 20.2015L22.1391 19.7147ZM26.6838 21.1584L27.8544 19.7135L29.1141 20.2013L27.6765 23.0828L27.2865 22.8059C27.2861 22.8056 27.2857 22.8052 27.2853 22.8049L26.0569 21.9323L26.6838 21.1584ZM27.053 24.4368L27.1314 24.4925C27.4052 24.687 27.7489 24.7513 28.0735 24.67C28.3988 24.5887 28.6713 24.3698 28.8211 24.0698V24.0697L30.0573 21.5923C30.482 22.1157 31.0962 22.4341 31.7288 22.5131C31.9523 23.9135 32.7092 25.1086 33.7727 25.9184V27.1664L27.5457 29.5806L26.7518 24.8901L27.053 24.4368ZM34.2728 28.5448L36.0708 30.7641C35.2847 31.3226 34.4944 31.8841 34.4536 31.913L33.0159 29.0316L34.2728 28.5448ZM41.0238 21.6652C41.0239 23.7567 39.3254 25.5477 37.1413 25.5477C34.6519 25.5477 33.1252 23.5979 33.1252 21.6652V18.2344C35.4215 18.3261 37.8273 17.6497 39.8049 16.4189C40.4654 17.1271 40.8583 17.5385 41.0238 17.7295C41.0238 19.5529 41.0238 20.2571 41.0238 21.6652ZM43.1927 20.0004C43.1927 20.4455 42.9175 20.8419 42.489 20.9977V19.0052C42.9319 19.1665 43.1927 19.5713 43.1927 20.0004ZM31.525 16.4286C31.525 13.3687 34.0146 10.8792 37.0744 10.8792C40.1344 10.8792 42.6237 13.3688 42.6237 16.4286V17.524C42.5904 17.5171 42.4988 17.5013 42.4866 17.4994C42.4767 17.2925 42.424 17.1659 42.3116 17.0043C42.1192 16.7278 41.7862 16.398 40.7044 15.2352C40.3267 14.8297 39.7038 14.7384 39.2204 15.0543C37.4157 16.2332 35.1357 16.8991 32.966 16.7582C32.3566 16.7183 31.9151 17.0167 31.7324 17.5109C31.7161 17.5135 31.5352 17.55 31.5249 17.5525V16.4286H31.525ZM31.6603 19.0473V20.9967C31.2296 20.8414 30.9566 20.4432 30.9566 20.0003C30.9565 19.5693 31.2688 19.2154 31.6603 19.0473ZM31.0588 11.1702C31.0588 11.4786 30.9253 11.7703 30.6926 11.9704C30.5927 12.0564 30.4788 12.1224 30.3551 12.1674V10.1749C30.7931 10.3339 31.0588 10.7366 31.0588 11.1702ZM24.9407 2.04907C28.0006 2.04907 30.4901 4.53852 30.4901 7.59847V8.69388C30.457 8.68704 30.3652 8.67113 30.353 8.66927C30.3421 8.44496 30.2775 8.30706 30.1455 8.12865C29.9495 7.86322 29.5879 7.49828 28.5707 6.40492C28.1867 5.99252 27.5628 5.91293 27.0868 6.22406C25.1809 7.46918 22.8689 8.07513 20.7733 7.92503C20.2606 7.88626 19.7779 8.19603 19.5988 8.6805C19.5825 8.68314 19.4015 8.71966 19.3914 8.7221V7.59857H19.3913C19.3913 4.53852 21.8808 2.04907 24.9407 2.04907ZM19.5264 10.217V12.1675C19.097 12.0116 18.8227 11.6145 18.8227 11.1701C18.8227 10.7416 19.1328 10.3863 19.5264 10.217ZM18.2214 19.0052C18.6311 19.1543 18.8943 19.5118 18.9204 19.9367C18.9532 20.4092 18.6629 20.8364 18.2214 20.9968V19.0052ZM18.1535 22.5129C18.8443 22.4265 19.4784 22.0624 19.8942 21.5023L21.1753 24.0697C21.1753 24.0697 21.1753 24.0697 21.1754 24.0698C21.3251 24.3699 21.5976 24.5887 21.9229 24.67C22.2445 24.7504 22.5885 24.6889 22.865 24.4925L22.9434 24.4368L23.2445 24.89L22.4508 29.5792L16.22 27.166V25.8326H16.2199C17.2573 24.9962 17.9453 23.8144 18.1535 22.5129ZM12.8642 29.7423L10.97 27.4041V26.7015C11.5833 26.9135 12.246 27.0126 12.8734 27.0127C12.8735 27.0127 12.8737 27.0127 12.8738 27.0127C13.5287 27.0127 14.181 26.8869 14.7549 26.6711V27.4086L12.8642 29.7423ZM13.7242 32.4183L13.4548 32.8239H12.274L12.0046 32.4183L12.8644 31.8077L13.7242 32.4183ZM15.7206 28.5437L16.9803 29.0316L15.5426 31.913L15.1526 31.636C15.1522 31.6357 15.1518 31.6353 15.1514 31.635L13.923 30.7626L15.7206 28.5437ZM8.8577 21.6652V18.2344C11.1828 18.3273 13.587 17.6327 15.5374 16.4189C16.1916 17.1204 16.5906 17.5383 16.7563 17.7295C16.7563 19.553 16.7563 20.2572 16.7563 21.6652C16.7563 23.7954 15.0195 25.5477 12.8738 25.5477C10.4848 25.5477 8.8577 23.7032 8.8577 21.6652ZM10.0054 28.5448L11.8034 30.7641L10.5772 31.635C10.5765 31.6355 10.5761 31.636 10.5754 31.6365L10.1862 31.913L8.74842 29.0316L10.0054 28.5448ZM5.83622 45.9507V35.2497C5.83622 34.8452 5.50839 34.5173 5.1038 34.5173C4.69921 34.5173 4.37138 34.8452 4.37138 35.2497V45.9506H1.58838C1.52021 45.9506 1.46494 45.8953 1.46494 45.8273V34.341C1.46494 31.9886 3.44706 31.0919 3.57538 31.0364L7.37626 29.5629L9.04139 32.8999C9.04139 32.8999 9.04139 32.8999 9.04149 32.9C9.19119 33.2001 9.46375 33.4188 9.78914 33.5002C10.1107 33.5806 10.4548 33.519 10.7312 33.3226L10.8096 33.267L11.1107 33.7202L9.47449 43.3878C9.47322 43.395 9.47215 43.4023 9.47108 43.4096C9.42401 43.7505 9.52996 44.1018 9.75486 44.3496L11.2102 45.9506H5.83622V45.9507ZM10.9446 43.4803L12.5002 34.2888H13.2286L14.7842 43.4803L12.8644 45.5923L10.9446 43.4803ZM24.2674 45.8272C24.2674 45.8953 24.2122 45.9506 24.1441 45.9506H21.3613V35.2497C21.3613 34.8452 21.0335 34.5173 20.6289 34.5173C20.2243 34.5173 19.8964 34.8452 19.8964 35.2497V45.9506H14.5185L15.9741 44.3494C16.1989 44.102 16.3049 43.7507 16.2577 43.4096C16.2566 43.4023 16.2555 43.3951 16.2543 43.3878L14.618 33.7202L14.9191 33.267L14.9975 33.3226C15.1935 33.4619 15.4256 33.5346 15.661 33.5346C16.0906 33.5346 16.4907 33.2938 16.6874 32.9V32.8999L18.3523 29.563L22.1555 31.0359C23.2641 31.5182 24.2673 32.7618 24.2673 34.341V45.8272H24.2674ZM25 31.6795C24.6965 31.1906 24.2926 30.7383 23.8057 30.3522L24.6339 25.4588H25.3624L26.191 30.3548C25.6911 30.7517 25.2924 31.2082 25 31.6795ZM30.1037 45.9507V35.2497C30.1037 34.8452 29.7758 34.5173 29.3712 34.5173C28.9666 34.5173 28.6388 34.8452 28.6388 35.2497V45.9506H25.8559C25.7878 45.9506 25.7325 45.8953 25.7325 45.8273V34.341C25.7325 33.4703 26.0055 32.6683 26.5872 31.9946C26.9749 31.5498 27.4893 31.1896 27.843 31.0364L31.6439 29.5628L33.309 32.8999C33.309 32.8999 33.309 32.8999 33.3091 32.9C33.4588 33.2001 33.7314 33.4188 34.0567 33.5002C34.3783 33.5806 34.7223 33.519 34.9988 33.3226L35.0772 33.267L35.3783 33.7202L33.742 43.3878C33.7408 43.395 33.7397 43.4023 33.7386 43.4096C33.6915 43.7505 33.7975 44.1018 34.0224 44.3496L35.4778 45.9506H30.1037V45.9507ZM35.212 43.4804L36.7677 34.2889H37.4961L39.0518 43.4804L37.1319 45.5924L35.212 43.4804Z" fill="#17181A"/>
</svg>
