<svg width="50" height="50" viewBox="0 0 50 50" fill="none" xmlns="http://www.w3.org/2000/svg">
<path d="M1.5625 30.9375C1.9769 30.9375 2.37433 31.1021 2.66735 31.3951C2.96038 31.6882 3.125 32.0856 3.125 32.5V40.3125C3.125 41.1413 3.45424 41.9362 4.04029 42.5222C4.62634 43.1083 5.4212 43.4375 6.25 43.4375H43.75C44.5788 43.4375 45.3737 43.1083 45.9597 42.5222C46.5458 41.9362 46.875 41.1413 46.875 40.3125V32.5C46.875 32.0856 47.0396 31.6882 47.3326 31.3951C47.6257 31.1021 48.0231 30.9375 48.4375 30.9375C48.8519 30.9375 49.2493 31.1021 49.5424 31.3951C49.8354 31.6882 50 32.0856 50 32.5V40.3125C50 41.9701 49.3415 43.5598 48.1694 44.7319C46.9973 45.904 45.4076 46.5625 43.75 46.5625H6.25C4.5924 46.5625 3.00269 45.904 1.83058 44.7319C0.65848 43.5598 0 41.9701 0 40.3125V32.5C0 32.0856 0.16462 31.6882 0.457646 31.3951C0.750671 31.1021 1.1481 30.9375 1.5625 30.9375Z" fill="#17181A"/>
<path d="M23.8938 37.0438C24.0389 37.1893 24.2113 37.3047 24.4012 37.3835C24.591 37.4622 24.7945 37.5028 25 37.5028C25.2055 37.5028 25.409 37.4622 25.5989 37.3835C25.7887 37.3047 25.9611 37.1893 26.1063 37.0438L35.4813 27.6688C35.7747 27.3754 35.9395 26.9774 35.9395 26.5625C35.9395 26.1476 35.7747 25.7496 35.4813 25.4562C35.1879 25.1629 34.7899 24.998 34.375 24.998C33.9601 24.998 33.5622 25.1629 33.2688 25.4562L26.5625 32.1656V4.6875C26.5625 4.2731 26.3979 3.87567 26.1049 3.58265C25.8118 3.28962 25.4144 3.125 25 3.125C24.5856 3.125 24.1882 3.28962 23.8952 3.58265C23.6021 3.87567 23.4375 4.2731 23.4375 4.6875V32.1656L16.7313 25.4562C16.4379 25.1629 16.0399 24.998 15.625 24.998C15.2101 24.998 14.8122 25.1629 14.5188 25.4562C14.2254 25.7496 14.0605 26.1476 14.0605 26.5625C14.0605 26.9774 14.2254 27.3754 14.5188 27.6688L23.8938 37.0438Z" fill="#17181A"/>
</svg>
