<svg width="106" height="120" viewBox="0 0 106 120" fill="none" xmlns="http://www.w3.org/2000/svg">
<g clip-path="url(#clip0_1013_315)">
<path d="M27.7034 53.4083C28.5604 53.9989 29.734 53.783 30.3246 52.9259C30.9153 52.0689 30.6993 50.8953 29.8423 50.3047C28.9853 49.714 27.8117 49.93 27.2211 50.787C26.6304 51.6441 26.8464 52.8176 27.7034 53.4083Z" fill="#555555"/>
<path d="M41.0412 62.6003C41.8982 63.1909 43.0718 62.975 43.6624 62.1179C44.2531 61.2609 44.0371 60.0873 43.1801 59.4967C42.3231 58.9061 41.1495 59.122 40.5588 59.979C39.9682 60.8361 40.1841 62.0096 41.0412 62.6003Z" fill="#555555"/>
<path d="M54.3785 71.7921C55.2355 72.3827 56.409 72.1667 56.9997 71.3097C57.5903 70.4527 57.3744 69.2791 56.5174 68.6885C55.6603 68.0978 54.4868 68.3138 53.8961 69.1708C53.3055 70.0278 53.5214 71.2014 54.3785 71.7921Z" fill="#555555"/>
<path d="M67.7159 80.9838C68.5729 81.5745 69.7464 81.3585 70.3371 80.5015C70.9277 79.6445 70.7118 78.4709 69.8548 77.8802C68.9977 77.2896 67.8242 77.5056 67.2335 78.3626C66.6429 79.2196 66.8588 80.3932 67.7159 80.9838Z" fill="#555555"/>
<path d="M18.9864 66.0567C19.8434 66.6473 21.017 66.4314 21.6076 65.5744C22.1982 64.7173 21.9823 63.5438 21.1253 62.9531C20.2682 62.3625 19.0947 62.5784 18.504 63.4355C17.9134 64.2925 18.1293 65.4661 18.9864 66.0567Z" fill="#555555"/>
<path d="M32.3241 75.2487C33.1812 75.8394 34.3547 75.6234 34.9454 74.7664C35.536 73.9093 35.3201 72.7358 34.463 72.1451C33.606 71.5545 32.4324 71.7704 31.8418 72.6275C31.2512 73.4845 31.4671 74.6581 32.3241 75.2487Z" fill="#555555"/>
<path d="M45.6614 84.4405C46.5184 85.0311 47.692 84.8152 48.2826 83.9581C48.8733 83.1011 48.6573 81.9275 47.8003 81.3369C46.9433 80.7463 45.7697 80.9622 45.1791 81.8192C44.5884 82.6763 44.8044 83.8498 45.6614 84.4405Z" fill="#555555"/>
<path d="M58.9988 93.6323C59.8558 94.2229 61.0294 94.007 61.6201 93.1499C62.2107 92.2929 61.9947 91.1193 61.1377 90.5287C60.2807 89.938 59.1071 90.154 58.5165 91.011C57.9258 91.8681 58.1418 93.0416 58.9988 93.6323Z" fill="#555555"/>
<path d="M10.2691 78.7056C11.1261 79.2963 12.2997 79.0803 12.8903 78.2233C13.481 77.3663 13.265 76.1927 12.408 75.602C11.551 75.0114 10.3774 75.2273 9.78675 76.0844C9.19611 76.9414 9.41206 78.115 10.2691 78.7056Z" fill="#555555"/>
<path d="M23.6069 87.8976C24.4639 88.4883 25.6374 88.2723 26.2281 87.4153C26.8187 86.5583 26.6028 85.3847 25.7458 84.7941C24.8887 84.2034 23.7152 84.4194 23.1245 85.2764C22.5339 86.1334 22.7498 87.307 23.6069 87.8976Z" fill="#555555"/>
<path d="M36.9441 97.0894C37.8012 97.68 38.9747 97.4641 39.5654 96.6071C40.156 95.75 39.9401 94.5765 39.083 93.9858C38.226 93.3952 37.0524 93.6111 36.4618 94.4682C35.8712 95.3252 36.0871 96.4988 36.9441 97.0894Z" fill="#555555"/>
<path d="M50.2815 106.281C51.1386 106.872 52.3121 106.656 52.9028 105.799C53.4934 104.942 53.2775 103.768 52.4204 103.178C51.5634 102.587 50.3898 102.803 49.7992 103.66C49.2086 104.517 49.4245 105.691 50.2815 106.281Z" fill="#555555"/>
<path d="M1.55204 91.3541C2.40907 91.9447 3.58264 91.7287 4.17328 90.8717C4.76392 90.0147 4.54797 88.8411 3.69095 88.2505C2.83392 87.6598 1.66035 87.8758 1.06971 88.7328C0.479065 89.5898 0.695015 90.7634 1.55204 91.3541Z" fill="#555555"/>
<path d="M14.8898 100.546C15.7468 101.137 16.9204 100.921 17.511 100.064C18.1017 99.2067 17.8857 98.0331 17.0287 97.4425C16.1717 96.8519 14.9981 97.0678 14.4075 97.9248C13.8168 98.7819 14.0328 99.9554 14.8898 100.546Z" fill="#555555"/>
<path d="M28.2271 109.738C29.0841 110.328 30.2577 110.113 30.8483 109.256C31.439 108.398 31.223 107.225 30.366 106.634C29.509 106.044 28.3354 106.26 27.7448 107.117C27.1541 107.974 27.3701 109.147 28.2271 109.738Z" fill="#555555"/>
<path d="M41.5645 118.93C42.4215 119.52 43.5951 119.304 44.1857 118.447C44.7764 117.59 44.5604 116.417 43.7034 115.826C42.8464 115.235 41.6728 115.451 41.0822 116.308C40.4915 117.165 40.7075 118.339 41.5645 118.93Z" fill="#555555"/>
<path d="M61.6351 4.17302C62.4921 4.76366 63.6656 4.54772 64.2563 3.69069C64.8469 2.83366 64.631 1.66009 63.774 1.06945C62.9169 0.47881 61.7434 0.694758 61.1527 1.55179C60.5621 2.40881 60.778 3.58238 61.6351 4.17302Z" fill="#555555"/>
<path d="M74.9728 13.365C75.8298 13.9557 77.0034 13.7397 77.5941 12.8827C78.1847 12.0257 77.9687 10.8521 77.1117 10.2615C76.2547 9.67083 75.0811 9.88677 74.4905 10.7438C73.8998 11.6008 74.1158 12.7744 74.9728 13.365Z" fill="#555555"/>
<path d="M88.3101 22.5568C89.1671 23.1475 90.3407 22.9315 90.9313 22.0745C91.522 21.2174 91.306 20.0439 90.449 19.4532C89.592 18.8626 88.4184 19.0785 87.8278 19.9356C87.2371 20.7926 87.4531 21.9662 88.3101 22.5568Z" fill="#555555"/>
<path d="M101.648 31.7486C102.505 32.3392 103.678 32.1233 104.269 31.2662C104.859 30.4092 104.643 29.2357 103.786 28.645C102.929 28.0544 101.756 28.2703 101.165 29.1273C100.575 29.9844 100.79 31.1579 101.648 31.7486Z" fill="#555555"/>
<path d="M52.9178 16.8219C53.7748 17.4126 54.9484 17.1966 55.539 16.3396C56.1296 15.4826 55.9137 14.309 55.0567 13.7184C54.1996 13.1277 53.0261 13.3437 52.4354 14.2007C51.8448 15.0577 52.0607 16.2313 52.9178 16.8219Z" fill="#555555"/>
<path d="M66.2555 26.014C67.1126 26.6046 68.2861 26.3887 68.8768 25.5316C69.4674 24.6746 69.2515 23.501 68.3944 22.9104C67.5374 22.3198 66.3638 22.5357 65.7732 23.3927C65.1826 24.2498 65.3985 25.4233 66.2555 26.014Z" fill="#555555"/>
<path d="M79.5928 35.2057C80.4498 35.7964 81.6234 35.5804 82.214 34.7234C82.8047 33.8664 82.5887 32.6928 81.7317 32.1022C80.8747 31.5115 79.7011 31.7275 79.1105 32.5845C78.5198 33.4415 78.7358 34.6151 79.5928 35.2057Z" fill="#555555"/>
<path d="M92.9302 44.3975C93.7872 44.9882 94.9608 44.7722 95.5515 43.9152C96.1421 43.0581 95.9261 41.8846 95.0691 41.2939C94.2121 40.7033 93.0385 40.9192 92.4479 41.7763C91.8572 42.6333 92.0732 43.8069 92.9302 44.3975Z" fill="#555555"/>
<path d="M44.2007 29.4704C45.0578 30.061 46.2313 29.8451 46.822 28.9881C47.4126 28.131 47.1967 26.9575 46.3396 26.3668C45.4826 25.7762 44.309 25.9921 43.7184 26.8492C43.1277 27.7062 43.3437 28.8797 44.2007 29.4704Z" fill="#555555"/>
<path d="M57.5385 38.6624C58.3955 39.253 59.5691 39.0371 60.1597 38.1801C60.7504 37.323 60.5344 36.1495 59.6774 35.5588C58.8204 34.9682 57.6468 35.1841 57.0562 36.0412C56.4655 36.8982 56.6815 38.0718 57.5385 38.6624Z" fill="#555555"/>
<path d="M70.8758 47.8542C71.7328 48.4448 72.9064 48.2289 73.497 47.3718C74.0876 46.5148 73.8717 45.3412 73.0147 44.7506C72.1576 44.16 70.9841 44.3759 70.3934 45.2329C69.8028 46.09 70.0187 47.2635 70.8758 47.8542Z" fill="#555555"/>
<path d="M84.2132 57.0459C85.0702 57.6366 86.2438 57.4206 86.8344 56.5636C87.4251 55.7066 87.2091 54.533 86.3521 53.9424C85.4951 53.3517 84.3215 53.5677 83.7308 54.4247C83.1402 55.2817 83.3561 56.4553 84.2132 57.0459Z" fill="#555555"/>
<path d="M35.4834 42.1193C36.3405 42.71 37.514 42.494 38.1047 41.637C38.6953 40.7799 38.4794 39.6064 37.6223 39.0157C36.7653 38.4251 35.5917 38.641 35.0011 39.4981C34.4105 40.3551 34.6264 41.5287 35.4834 42.1193Z" fill="#555555"/>
<path d="M48.8212 51.3113C49.6782 51.902 50.8518 51.686 51.4424 50.829C52.0331 49.972 51.8171 48.7984 50.9601 48.2078C50.1031 47.6171 48.9295 47.8331 48.3389 48.6901C47.7482 49.5471 47.9642 50.7207 48.8212 51.3113Z" fill="#555555"/>
<path d="M62.1585 60.5031C63.0155 61.0937 64.1891 60.8778 64.7797 60.0208C65.3704 59.1637 65.1544 57.9902 64.2974 57.3995C63.4404 56.8089 62.2668 57.0248 61.6762 57.8819C61.0855 58.7389 61.3015 59.9125 62.1585 60.5031Z" fill="#555555"/>
<path d="M75.4959 69.6949C76.3529 70.2855 77.5265 70.0696 78.1171 69.2125C78.7078 68.3555 78.4918 67.1819 77.6348 66.5913C76.7778 66.0007 75.6042 66.2166 75.0136 67.0736C74.4229 67.9307 74.6389 69.1042 75.4959 69.6949Z" fill="#555555"/>
</g>
<defs>
<clipPath id="clip0_1013_315">
<rect width="52.3635" height="109.649" fill="white" transform="translate(62.2222) rotate(34.5736)"/>
</clipPath>
</defs>
</svg>
