<svg width="93" height="92" viewBox="0 0 93 92" fill="none" xmlns="http://www.w3.org/2000/svg">
<path d="M84.6083 66.1496C83.1094 65.5085 82.4084 63.7667 83.0494 62.2662C83.6967 60.7596 85.4324 60.0662 86.9405 60.7134C88.4395 61.3545 89.1405 63.0964 88.4994 64.5953C88.4441 64.7121 88.3934 64.8182 88.3334 64.9212C87.5939 66.1926 85.9951 66.7476 84.6083 66.1496Z" fill="#555555"/>
<path d="M75.1506 82.3303C73.8792 83.3619 72.0159 83.1697 70.9844 81.8998C69.9482 80.6376 70.1403 78.7743 71.4025 77.7382C72.6739 76.7066 74.5372 76.8987 75.5734 78.1609C76.3698 79.1479 76.4374 80.4885 75.8378 81.5201C75.6657 81.8183 75.4351 82.0951 75.1506 82.3303Z" fill="#555555"/>
<path d="M89.3697 45.8853C87.7432 46.0145 86.3149 44.7984 86.1781 43.1657C86.049 41.5392 87.265 40.111 88.8916 39.9818C90.5227 39.845 91.9509 41.0611 92.0878 42.6922C92.1324 43.3225 91.9848 43.9113 91.6927 44.4141C91.2238 45.2273 90.3751 45.8069 89.3697 45.8853Z" fill="#555555"/>
<path d="M55.0908 91.8114C53.4827 92.145 51.9207 91.1012 51.5902 89.5069C51.2643 87.9034 52.3005 86.3353 53.904 86.0109C55.5074 85.6865 57.074 86.7212 57.3999 88.3247C57.5537 89.0641 57.4153 89.7928 57.0633 90.4001C56.6512 91.1073 55.9548 91.6392 55.0908 91.8114Z" fill="#555555"/>
<path d="M84.1717 25.7196C82.7773 26.5883 80.9555 26.1701 80.0823 24.7849C79.2167 23.4044 79.6272 21.5764 81.0124 20.7032C82.3975 19.83 84.2285 20.2527 85.0941 21.6333C85.706 22.6049 85.686 23.7795 85.151 24.7019C84.9173 25.1032 84.5868 25.4583 84.1717 25.7196Z" fill="#555555"/>
<path d="M32.911 90.9227C31.3444 90.4584 30.4373 88.8134 30.9016 87.2468C31.3521 85.6833 32.9971 84.7762 34.5683 85.2328C36.1318 85.6848 37.0342 87.336 36.5822 88.901C36.5146 89.1347 36.4162 89.3638 36.2978 89.5682C35.6352 90.712 34.2408 91.3055 32.911 90.9227Z" fill="#555555"/>
<path d="M66.1476 11.3592C66.1215 11.3438 66.0969 11.33 66.08 11.3192C66.0538 11.3038 66.0292 11.29 66.0123 11.2792C64.5902 10.4659 64.1014 8.65338 64.9238 7.23592C65.7371 5.81385 67.5451 5.33419 68.9595 6.14285C68.9933 6.16284 69.0194 6.17821 69.044 6.19205C69.0701 6.20742 69.0947 6.22126 69.1209 6.23663C70.5383 7.05913 71.018 8.86708 70.1955 10.283C69.3715 11.702 67.5635 12.1817 66.1476 11.3592Z" fill="#555555"/>
<path d="M17.8863 79.7291C16.7563 80.9098 14.8823 80.9528 13.7016 79.8228C12.5209 78.6929 12.4824 76.8111 13.6139 75.6289C14.7439 74.4482 16.6211 74.419 17.8018 75.5489C18.8072 76.5098 18.984 78.0149 18.3152 79.1664C18.1953 79.3724 18.0554 79.5538 17.8863 79.7291Z" fill="#555555"/>
<path d="M47.407 5.91827C45.7789 5.85217 44.5121 4.47775 44.569 2.84506C44.6259 1.21237 46.0064 -0.0636501 47.633 0.00245702C49.2733 0.0654894 50.5417 1.4399 50.4848 3.07259C50.4664 3.57531 50.3218 4.0396 50.0897 4.44086C49.5562 5.36174 48.5462 5.96286 47.407 5.91827Z" fill="#555555"/>
<path d="M5.5889 62.9288C4.03615 63.4423 2.36348 62.6091 1.85 61.0548C1.32268 59.5051 2.16978 57.8294 3.71484 57.3097C5.26759 56.7962 6.94025 57.6295 7.46757 59.1792C7.74276 60.0232 7.62592 60.8918 7.21083 61.6098C6.86338 62.2078 6.29763 62.6905 5.5889 62.9288Z" fill="#555555"/>
<path d="M28.442 9.81548C26.9692 10.5242 25.1996 9.89696 24.4955 8.41493C23.7991 6.93905 24.4279 5.16953 25.9038 4.47464C27.3842 3.77052 29.1461 4.39316 29.8502 5.87365C30.2883 6.78992 30.2069 7.81535 29.7318 8.63477C29.4443 9.12981 29.0062 9.54951 28.442 9.81548Z" fill="#555555"/>
<path d="M2.48648 42.3372C0.870698 42.0728 -0.223912 40.5584 0.0389786 38.9427C0.303407 37.3269 1.81772 36.2323 3.43811 36.4875C5.05389 36.7519 6.14389 38.2739 5.88561 39.882C5.82719 40.2587 5.69959 40.5953 5.52126 40.9028C4.92629 41.9267 3.73944 42.5386 2.48648 42.3372Z" fill="#555555"/>
<path d="M13.4664 22.0761C12.4917 23.3814 10.6361 23.6504 9.32165 22.6711C8.01642 21.6964 7.75199 19.8316 8.72515 18.5263C9.70446 17.2119 11.5555 16.9521 12.8699 17.9314C14.086 18.843 14.4042 20.4988 13.6601 21.7794C13.6017 21.8809 13.5341 21.9778 13.4664 22.0761Z" fill="#555555"/>
<path d="M77.5565 62.5491C76.3282 62.031 75.7547 60.6012 76.2867 59.3698C76.814 58.146 78.2422 57.5711 79.466 58.0984C80.6974 58.6303 81.2631 60.0539 80.7358 61.2777C80.7035 61.373 80.6543 61.4591 80.6036 61.5436C80.001 62.586 78.6988 63.0395 77.5565 62.5491Z" fill="#555555"/>
<path d="M69.8172 75.7888C68.7779 76.6359 67.2483 76.4776 66.4165 75.4352C65.5648 74.4052 65.7216 72.8755 66.7609 72.03C67.8002 71.1829 69.3299 71.3412 70.1662 72.3743C70.8226 73.1891 70.8749 74.2807 70.3845 75.1247C70.2415 75.3737 70.0555 75.5967 69.8172 75.7888Z" fill="#555555"/>
<path d="M81.4583 45.973C80.1208 46.076 78.9524 45.0782 78.8447 43.7499C78.7417 42.4124 79.7349 41.2532 81.0678 41.1379C82.3961 41.0303 83.5722 42.0327 83.6798 43.361C83.7151 43.8714 83.5906 44.3587 83.3539 44.7692C82.968 45.4349 82.2762 45.9007 81.4583 45.973Z" fill="#555555"/>
<path d="M53.4012 83.5511C52.0929 83.8186 50.8154 82.9746 50.5509 81.6571C50.2834 80.3488 51.1275 79.0712 52.4358 78.8022C53.7441 78.5346 55.0216 79.3787 55.2984 80.6916C55.4152 81.2958 55.3076 81.8953 55.0201 82.3904C54.6849 82.9715 54.1146 83.4051 53.4012 83.5511Z" fill="#555555"/>
<path d="M77.2044 29.4708C76.0636 30.178 74.5678 29.8459 73.8606 28.7052C73.1488 27.5737 73.4885 26.0824 74.6216 25.3691C75.7531 24.6573 77.2536 25.0016 77.9577 26.1285C78.4573 26.9203 78.445 27.8842 78.01 28.6344C77.8147 28.968 77.5441 29.2571 77.2044 29.4708Z" fill="#555555"/>
<path d="M35.2634 82.8161C33.9736 82.4441 33.2387 81.0943 33.6138 79.8167C33.9859 78.5269 35.328 77.7874 36.6178 78.1594C37.8939 78.5346 38.6426 79.8813 38.2613 81.1681C38.2044 81.3633 38.1275 81.5355 38.0291 81.7062C37.4849 82.6455 36.358 83.1328 35.2634 82.8161Z" fill="#555555"/>
<path d="M62.4516 17.7269L62.4562 17.7192C62.447 17.7146 62.4393 17.7085 62.4224 17.6992C62.3963 17.6839 62.3655 17.6777 62.3409 17.6623C61.1802 16.989 60.7805 15.5131 61.4462 14.3478C62.1196 13.187 63.5954 12.7873 64.7561 13.4607C64.7823 13.4761 64.7992 13.4853 64.8238 13.5007C64.8407 13.5099 64.8668 13.5253 64.8838 13.536C66.0445 14.2094 66.4442 15.6853 65.7708 16.846C65.0959 18.0067 63.6123 18.4018 62.4516 17.7269Z" fill="#555555"/>
<path d="M22.9689 73.6627C22.0419 74.6312 20.506 74.6635 19.5421 73.7288C19.5421 73.7288 19.5421 73.7288 19.5375 73.7365C18.5828 72.8064 18.5459 71.2782 19.4714 70.3097C20.3984 69.3411 21.9296 69.3165 22.9028 70.2359C23.7191 71.0292 23.8652 72.2544 23.3148 73.2015C23.221 73.366 23.1042 73.5259 22.9689 73.6627Z" fill="#555555"/>
<path d="M47.1227 13.2715C45.7867 13.2146 44.7459 12.0985 44.7936 10.7564C44.8489 9.42038 45.9666 8.37957 47.3087 8.42723C48.6493 8.47489 49.6947 9.6064 49.6378 10.9424C49.6225 11.3436 49.5087 11.7341 49.3165 12.0677C48.8845 12.8118 48.0543 13.2992 47.1227 13.2715Z" fill="#555555"/>
<path d="M12.9036 59.9171C11.6383 60.3476 10.2623 59.6511 9.84572 58.3828C9.41525 57.1175 10.0978 55.7447 11.3708 55.3203C12.6453 54.896 14.012 55.5863 14.4425 56.8516C14.6685 57.5418 14.5716 58.2613 14.2349 58.8425C13.9536 59.3283 13.4878 59.7188 12.9036 59.9171Z" fill="#555555"/>
<path d="M31.6104 16.4693C30.3989 17.0443 28.9538 16.5247 28.3788 15.3132C27.8039 14.1018 28.3173 12.6659 29.5303 12.0909C30.7341 11.5113 32.1792 12.0294 32.7588 13.2331C33.1093 13.9849 33.0525 14.8305 32.6666 15.4962C32.4267 15.9051 32.0701 16.2449 31.6104 16.4693Z" fill="#555555"/>
<path d="M10.37 43.0659C9.0525 42.8599 8.15621 41.61 8.36222 40.2924C8.58207 38.9703 9.82273 38.0709 11.1449 38.2893C12.4639 38.4953 13.3587 39.7451 13.1527 41.0627C13.1035 41.3655 12.9974 41.6453 12.8529 41.8929C12.3625 42.7384 11.3893 43.235 10.37 43.0659Z" fill="#555555"/>
<path d="M19.3515 26.4837C18.5551 27.5614 17.0377 27.7766 15.96 26.9802C14.887 26.1747 14.6717 24.6588 15.4773 23.5842C16.2767 22.5188 17.7987 22.2959 18.8641 23.0953C19.8573 23.8425 20.1171 25.203 19.5083 26.2531C19.4637 26.3315 19.4145 26.416 19.3515 26.4837Z" fill="#555555"/>
<path d="M71.5347 59.4757C70.54 59.0468 70.0757 57.8984 70.5046 56.9037C70.9336 55.909 72.0851 55.4371 73.089 55.8706C74.076 56.2949 74.5418 57.4556 74.1144 58.4503C74.0836 58.5241 74.0437 58.5918 74.0037 58.6594C73.5148 59.5065 72.4571 59.8739 71.5347 59.4757Z" fill="#555555"/>
<path d="M65.2653 70.2036C64.4213 70.8892 63.1883 70.7555 62.5104 69.9176C61.8247 69.0751 61.9446 67.8437 62.7886 67.158C63.6326 66.4724 64.8656 66.6061 65.5482 67.4363C66.0832 68.0881 66.1247 68.9798 65.7281 69.6624C65.6082 69.8669 65.456 70.0514 65.2653 70.2036Z" fill="#555555"/>
<path d="M74.6971 46.0438C73.6086 46.1314 72.6724 45.3258 72.5801 44.2451C72.4971 43.1704 73.2981 42.2203 74.3789 42.1281C75.4627 42.0497 76.4128 42.8522 76.4958 43.9268C76.5266 44.345 76.4282 44.7324 76.2299 45.0737C75.9178 45.6118 75.3628 45.9977 74.6971 46.0438Z" fill="#555555"/>
<path d="M51.9655 76.4884C50.9032 76.7051 49.8716 76.0256 49.6548 74.9648C49.4381 73.9025 50.1222 72.8617 51.183 72.6449C52.2438 72.4282 53.2861 73.1123 53.5029 74.1731C53.5967 74.662 53.509 75.1462 53.2753 75.5475C53.0032 76.0179 52.5436 76.3777 51.9655 76.4884Z" fill="#555555"/>
<path d="M71.247 32.6777C70.3307 33.2527 69.1192 32.9821 68.5396 32.0536C67.9647 31.1373 68.2429 29.9304 69.1592 29.3539C70.0755 28.779 71.2869 29.048 71.8619 29.9643C72.2647 30.6084 72.2555 31.391 71.8988 32.0059C71.7451 32.2703 71.5237 32.4963 71.247 32.6777Z" fill="#555555"/>
<path d="M37.2726 75.8935C36.2257 75.5937 35.6261 74.5037 35.9336 73.4614C36.2365 72.4283 37.3265 71.8287 38.3657 72.1223C39.4081 72.4298 40.0076 73.5198 39.7002 74.5621C39.6556 74.7189 39.5925 74.865 39.5188 74.9926C39.0714 75.7613 38.1582 76.1564 37.2726 75.8935Z" fill="#555555"/>
<path d="M59.3016 23.1568C59.2847 23.1476 59.2678 23.1368 59.2509 23.1276C59.2417 23.123 59.2248 23.1122 59.2079 23.103C58.2639 22.5665 57.9457 21.3658 58.4899 20.428C59.0264 19.484 60.2271 19.1643 61.1711 19.7008C61.188 19.7116 61.2003 19.7285 61.2172 19.7392C61.2341 19.7485 61.2556 19.75 61.2725 19.7608C62.2119 20.305 62.5255 21.5149 61.9859 22.445C61.4417 23.3828 60.241 23.7011 59.3016 23.1568Z" fill="#555555"/>
<path d="M27.3104 68.4802C26.5586 69.2658 25.3149 69.2843 24.5385 68.5371C23.7545 67.7853 23.7283 66.5493 24.4724 65.7606C25.2334 64.9812 26.4679 64.9566 27.2535 65.7083C27.9207 66.3479 28.0407 67.341 27.5948 68.1082C27.5195 68.2373 27.4226 68.3649 27.3104 68.4802Z" fill="#555555"/>
<path d="M46.8827 19.5456C45.7973 19.5087 44.9564 18.5986 45.001 17.5178C45.0379 16.4324 45.948 15.5914 47.0334 15.6268C48.1141 15.6714 48.9597 16.5738 48.9228 17.6592C48.9105 17.9944 48.8121 18.3018 48.6538 18.5755C48.3032 19.1828 47.6376 19.584 46.8827 19.5456Z" fill="#555555"/>
<path d="M19.1594 57.3389C18.1247 57.6864 17.0178 57.136 16.6796 56.1059C16.3321 55.0713 16.8841 53.9644 17.9172 53.6185C18.9457 53.2802 20.0526 53.8306 20.4 54.8653C20.583 55.4156 20.5061 55.9999 20.234 56.4687C20.0019 56.8685 19.6329 57.1913 19.1594 57.3389Z" fill="#555555"/>
<path d="M34.3087 22.1423C33.334 22.6035 32.161 22.1853 31.6921 21.206C31.2309 20.2313 31.6491 19.0583 32.6238 18.5971C33.6046 18.1267 34.7761 18.5448 35.2373 19.5211C35.5309 20.136 35.4787 20.814 35.1681 21.3521C34.9744 21.6842 34.6792 21.9578 34.3087 22.1423Z" fill="#555555"/>
<path d="M17.1008 43.6961C16.0277 43.5193 15.3036 42.5061 15.4758 41.4407C15.6541 40.3677 16.658 39.6389 17.7311 39.8157C18.7949 39.9879 19.5237 40.9934 19.3561 42.0695C19.3192 42.3109 19.2346 42.5354 19.1147 42.7398C18.7196 43.4255 17.9294 43.8237 17.1008 43.6961Z" fill="#555555"/>
<path d="M24.3849 30.2594C23.7346 31.1249 22.5031 31.3017 21.6314 30.6591C20.7659 30.0088 20.5891 28.7774 21.241 27.9103C21.8836 27.0386 23.115 26.8633 23.9898 27.5198C24.7969 28.1132 25.0029 29.2155 24.5079 30.0687C24.4679 30.1364 24.4325 30.1963 24.3849 30.2594Z" fill="#555555"/>
</svg>
