<svg width="96" height="101" viewBox="0 0 96 101" fill="none" xmlns="http://www.w3.org/2000/svg">
<g clip-path="url(#clip0_1023_2288)">
<path d="M25.5703 81.2381L29.4446 85.1124" stroke="#494949" stroke-width="1.6547" stroke-miterlimit="10" stroke-linecap="round" stroke-linejoin="round"/>
<path d="M12.2732 67.9409L19.3942 75.062" stroke="#494949" stroke-width="1.6547" stroke-miterlimit="10" stroke-linecap="round" stroke-linejoin="round"/>
<path d="M24.3396 68.8009L51.154 95.6147" stroke="#494949" stroke-width="1.6547" stroke-miterlimit="10" stroke-linecap="round" stroke-linejoin="round"/>
<path d="M10.6675 55.1283L16.1044 60.5659" stroke="#494949" stroke-width="1.6547" stroke-miterlimit="10" stroke-linecap="round" stroke-linejoin="round"/>
<path d="M43.6111 76.8662L67.2048 100.46" stroke="#494949" stroke-width="1.6547" stroke-miterlimit="10" stroke-linecap="round" stroke-linejoin="round"/>
<path d="M8.01245 41.2676L33.1688 66.424" stroke="#494949" stroke-width="1.6547" stroke-miterlimit="10" stroke-linecap="round" stroke-linejoin="round"/>
<path d="M27.7358 49.7841L69.38 91.4282" stroke="#494949" stroke-width="1.6547" stroke-miterlimit="10" stroke-linecap="round" stroke-linejoin="round"/>
<path d="M10.5161 32.5643L19.331 41.3793" stroke="#494949" stroke-width="1.6547" stroke-miterlimit="10" stroke-linecap="round" stroke-linejoin="round"/>
<path d="M62.1184 72.9612L72.1277 82.9705" stroke="#494949" stroke-width="1.6547" stroke-miterlimit="10" stroke-linecap="round" stroke-linejoin="round"/>
<path d="M0.540039 11.3828L51.5914 62.4335" stroke="#494949" stroke-width="1.6547" stroke-miterlimit="10" stroke-linecap="round" stroke-linejoin="round"/>
<path d="M41.4888 41.1246L91.3608 90.9966" stroke="#494949" stroke-width="1.6547" stroke-miterlimit="10" stroke-linecap="round" stroke-linejoin="round"/>
<path d="M19.4609 19.0967L31.0466 30.6824" stroke="#494949" stroke-width="1.6547" stroke-miterlimit="10" stroke-linecap="round" stroke-linejoin="round"/>
<path d="M51.167 39.5966L83.385 71.8146" stroke="#494949" stroke-width="1.6547" stroke-miterlimit="10" stroke-linecap="round" stroke-linejoin="round"/>
<path d="M18.2764 6.70663L42.083 30.5126" stroke="#494949" stroke-width="1.6547" stroke-miterlimit="10" stroke-linecap="round" stroke-linejoin="round"/>
<path d="M77.7397 54.9631L94.5677 71.7911" stroke="#494949" stroke-width="1.6547" stroke-miterlimit="10" stroke-linecap="round" stroke-linejoin="round"/>
<path d="M32.824 10.0474L65.5147 42.7375" stroke="#494949" stroke-width="1.6547" stroke-miterlimit="10" stroke-linecap="round" stroke-linejoin="round"/>
<path d="M61.4395 27.4565L84.1725 50.189" stroke="#494949" stroke-width="1.6547" stroke-miterlimit="10" stroke-linecap="round" stroke-linejoin="round"/>
<path d="M35.5234 1.54004L52.5251 18.5424" stroke="#494949" stroke-width="1.6547" stroke-miterlimit="10" stroke-linecap="round" stroke-linejoin="round"/>
<path d="M81.6448 36.4556L90.4884 45.2993" stroke="#494949" stroke-width="1.6547" stroke-miterlimit="10" stroke-linecap="round" stroke-linejoin="round"/>
<path d="M49.1257 3.93658L71.5421 26.353" stroke="#494949" stroke-width="1.6547" stroke-miterlimit="10" stroke-linecap="round" stroke-linejoin="round"/>
<path d="M77.0496 20.6542L82.4819 26.0859" stroke="#494949" stroke-width="1.6547" stroke-miterlimit="10" stroke-linecap="round" stroke-linejoin="round"/>
<path d="M67.5078 11.1125L71.2554 14.8601" stroke="#494949" stroke-width="1.6547" stroke-miterlimit="10" stroke-linecap="round" stroke-linejoin="round"/>
</g>
<defs>
<clipPath id="clip0_1023_2288">
<rect width="96" height="101" fill="white"/>
</clipPath>
</defs>
</svg>
