<svg id="Layer_1" data-name="Layer 1" xmlns="http://www.w3.org/2000/svg" viewBox="0 0 1808.68 552.23"><defs><style>.cls-1{fill:#fff;}</style></defs><path class="cls-1" d="M637,1052a81.94,81.94,0,0,1-23.14-3.24q-11.07-3.22-17.82-8.41l7.9-17.54a57.55,57.55,0,0,0,15.31,7.55,56.11,56.11,0,0,0,17.9,2.95,37,37,0,0,0,11.14-1.37,13,13,0,0,0,6.25-3.81,8.54,8.54,0,0,0,2-5.6,7.57,7.57,0,0,0-3.16-6.4,26,26,0,0,0-8.33-3.88c-3.45-1-7.26-2-11.43-2.88s-8.34-2-12.51-3.37a52.74,52.74,0,0,1-11.43-5.18,25.4,25.4,0,0,1-8.41-8.34Q598,987.36,598,979.3a28.1,28.1,0,0,1,4.67-15.74q4.68-7.11,14.09-11.35T640.4,948a79.37,79.37,0,0,1,18.69,2.23,54,54,0,0,1,16.24,6.69l-7.18,17.68a61.37,61.37,0,0,0-14.09-6,52,52,0,0,0-13.8-1.94,32.75,32.75,0,0,0-11.07,1.58,13.07,13.07,0,0,0-6.18,4.1,9.55,9.55,0,0,0-1.87,5.82,7.46,7.46,0,0,0,3.16,6.26,25.06,25.06,0,0,0,8.34,3.8q5.18,1.44,11.43,2.88t12.5,3.31a48.42,48.42,0,0,1,11.43,5,25.4,25.4,0,0,1,8.41,8.34q3.24,5.18,3.23,13.08a27.23,27.23,0,0,1-4.74,15.53q-4.74,7-14.16,11.35T637,1052Z" transform="translate(-95.66 -723.89)"/><path class="cls-1" d="M733.26,1050.31H710V949.69h23.29Zm47.44-41.26H731.54V989.36H780.7ZM779,949.69h23.29v100.62H779Z" transform="translate(-95.66 -723.89)"/><path class="cls-1" d="M889.37,1052a61.16,61.16,0,0,1-22.07-3.89,52,52,0,0,1-17.53-10.92,49.75,49.75,0,0,1-11.5-16.53,54.3,54.3,0,0,1,0-41.4,49.33,49.33,0,0,1,11.57-16.53,53.15,53.15,0,0,1,17.53-10.92,63.51,63.51,0,0,1,43.77,0,52.57,52.57,0,0,1,17.4,10.92,52.52,52.52,0,0,1,11.57,58,49.9,49.9,0,0,1-11.57,16.53,53.05,53.05,0,0,1-17.4,10.85A59.57,59.57,0,0,1,889.37,1052Zm-.15-19.84a32.94,32.94,0,0,0,12.44-2.3,29.93,29.93,0,0,0,10-6.61,30.3,30.3,0,0,0,6.68-10.21,37.28,37.28,0,0,0,0-26.16,30.9,30.9,0,0,0-6.61-10.21,29.11,29.11,0,0,0-10-6.61,33.49,33.49,0,0,0-12.51-2.3,32.85,32.85,0,0,0-12.43,2.3,29.89,29.89,0,0,0-10,6.61,30.3,30.3,0,0,0-6.68,10.21,36.94,36.94,0,0,0,0,26.09,30.54,30.54,0,0,0,6.61,10.28,28.78,28.78,0,0,0,10,6.61A33.4,33.4,0,0,0,889.22,1032.2Z" transform="translate(-95.66 -723.89)"/><path class="cls-1" d="M976.18,1050.31V949.69h43.56q13.52,0,23.29,4.38a34.16,34.16,0,0,1,15.09,12.58q5.33,8.19,5.32,19.55t-5.32,19.4a34,34,0,0,1-15.09,12.58q-9.78,4.4-23.29,4.39H989.12l10.35-10.49v38.23Zm23.29-35.65-10.35-11.07h29.33q10.77,0,16.1-4.6t5.31-12.79q0-8.34-5.31-12.94t-16.1-4.6H989.12l10.35-11.07Z" transform="translate(-95.66 -723.89)"/><path class="cls-1" d="M1094.35,1050.31V949.69h23.28v100.62Z" transform="translate(-95.66 -723.89)"/><path class="cls-1" d="M1179.15,1050.31h-23.29V949.69h76.05v18.69h-52.76ZM1177.43,995h48.29v18.69h-48.29Z" transform="translate(-95.66 -723.89)"/><path class="cls-1" d="M1287.11,1050.31V1009.2l5.32,14.09-44.28-73.6h24.72l33.93,56.49h-14.23l34.07-56.49h22.85l-44.27,73.6,5.17-14.09v41.11Z" transform="translate(-95.66 -723.89)"/><path class="cls-1" d="M1422.22,1051.18a57.74,57.74,0,0,1-21.2-3.81,50.6,50.6,0,0,1-16.82-10.71,48.89,48.89,0,0,1-11.06-16.25,54.58,54.58,0,0,1,0-40.82,48.09,48.09,0,0,1,11.14-16.24,51,51,0,0,1,16.89-10.71,57.46,57.46,0,0,1,21.2-3.81,59.38,59.38,0,0,1,21.06,3.59,41.9,41.9,0,0,1,16.31,10.93l-6.61,6.75a37.78,37.78,0,0,0-13.94-9.06,48.51,48.51,0,0,0-16.39-2.73,46.45,46.45,0,0,0-17.18,3.09,40.59,40.59,0,0,0-22.71,22,44.09,44.09,0,0,0,0,33.13,40.41,40.41,0,0,0,22.71,22.07,46,46,0,0,0,17,3.09,50.94,50.94,0,0,0,16.31-2.59,38.05,38.05,0,0,0,14.16-8.77l6,8.05a48.53,48.53,0,0,1-16.82,9.56A62.7,62.7,0,0,1,1422.22,1051.18Zm26.74-14.09V1000h10.21v38.38Z" transform="translate(-95.66 -723.89)"/><path class="cls-1" d="M1514.22,1041.11h60.52v9.2h-71.15V949.69h69v9.2h-58.36Zm-1.15-46.43h53.19v9.06h-53.19Z" transform="translate(-95.66 -723.89)"/><path class="cls-1" d="M1624.76,1041.11h60.51v9.2h-71.15V949.69h69v9.2h-58.36Zm-1.16-46.43h53.19v9.06H1623.6Z" transform="translate(-95.66 -723.89)"/><path class="cls-1" d="M1724.66,1050.31V949.69h10.63v100.62Zm9.2-25-.44-12.94,60.95-62.67h12.22l-44.42,46.57-6,6.47Zm63.1,25-43.41-50,7.19-7.77,48.87,57.79Z" transform="translate(-95.66 -723.89)"/><path class="cls-1" d="M1866.82,1051.18a63.6,63.6,0,0,1-21.49-3.67q-10.27-3.67-15.89-9.42l4.17-8.19a42.57,42.57,0,0,0,14.31,8.7,51.45,51.45,0,0,0,18.9,3.52c6.32,0,11.48-.79,15.45-2.37a18.8,18.8,0,0,0,8.77-6.4,15.22,15.22,0,0,0,2.8-8.91,13.31,13.31,0,0,0-3.37-9.49,23.44,23.44,0,0,0-8.84-5.68,99,99,0,0,0-12.08-3.67q-6.61-1.58-13.22-3.37a56.09,56.09,0,0,1-12.15-4.82,25.08,25.08,0,0,1-8.91-8q-3.37-4.95-3.38-13a25.24,25.24,0,0,1,3.95-13.73q4-6.26,12.15-10.06t21-3.81a61.21,61.21,0,0,1,16.81,2.37,48.32,48.32,0,0,1,14.38,6.54l-3.6,8.48a47.5,47.5,0,0,0-13.72-6.32,52.54,52.54,0,0,0-14-2q-9,0-14.95,2.45a18.87,18.87,0,0,0-8.69,6.54,16,16,0,0,0-2.81,9.27,13.31,13.31,0,0,0,3.38,9.49,22.56,22.56,0,0,0,8.91,5.6,110.92,110.92,0,0,0,12.15,3.59q6.62,1.59,13.15,3.46a61.62,61.62,0,0,1,12.08,4.81,25,25,0,0,1,8.91,7.83q3.38,4.89,3.38,12.8a24.63,24.63,0,0,1-4,13.58q-4,6.26-12.29,10.07T1866.82,1051.18Z" transform="translate(-95.66 -723.89)"/><path class="cls-1" d="M368.94,1060.28h-66.2L434,832.17h-85.9L174,1134.74H348.83l-92,141.37h88.82l76.52-117.63a63.55,63.55,0,0,0-53.27-98.2Z" transform="translate(-95.66 -723.89)"/><polygon class="cls-1" points="559.12 0 475.32 0 353.54 232.62 353.6 232.62 322.32 292.36 406.11 292.36 527.89 59.74 527.84 59.74 559.12 0"/><polygon class="cls-1" points="50.15 203.5 0 291.14 85.78 291.14 135.93 203.5 50.15 203.5"/></svg>