<svg width="1868" height="553" viewBox="0 0 1868 553" fill="none" xmlns="http://www.w3.org/2000/svg">
<path d="M599.96 330.08C592.132 330.111 584.339 329.02 576.82 326.84C569.44 324.693 563.5 321.89 559 318.43L566.9 300.89C571.6 304.154 576.76 306.698 582.21 308.44C587.977 310.388 594.023 311.384 600.11 311.39C603.871 311.502 607.628 311.04 611.25 310.02C613.655 309.375 615.825 308.052 617.5 306.21C618.816 304.643 619.526 302.656 619.5 300.61C619.54 299.365 619.273 298.13 618.722 297.014C618.17 295.898 617.352 294.934 616.34 294.21C613.816 292.432 610.995 291.118 608.01 290.33C604.56 289.33 600.75 288.33 596.58 287.45C592.41 286.57 588.24 285.45 584.07 284.08C580.067 282.814 576.23 281.075 572.64 278.9C569.219 276.821 566.337 273.964 564.23 270.56C562.05 267.146 560.96 262.753 560.96 257.38C560.915 251.785 562.541 246.305 565.63 241.64C568.75 236.9 573.447 233.116 579.72 230.29C585.993 227.463 593.873 226.06 603.36 226.08C609.656 226.079 615.931 226.828 622.05 228.31C627.792 229.639 633.278 231.898 638.29 235L631.11 252.68C626.682 250.099 621.949 248.084 617.02 246.68C612.528 245.417 607.886 244.764 603.22 244.74C599.467 244.628 595.722 245.162 592.15 246.32C589.737 247.061 587.591 248.485 585.97 250.42C584.726 252.103 584.069 254.147 584.1 256.24C584.073 257.462 584.348 258.673 584.899 259.764C585.45 260.856 586.261 261.795 587.26 262.5C589.783 264.268 592.61 265.557 595.6 266.3C599.053 267.26 602.863 268.22 607.03 269.18C611.197 270.14 615.363 271.243 619.53 272.49C623.54 273.657 627.382 275.337 630.96 277.49C634.381 279.568 637.263 282.426 639.37 285.83C641.53 289.283 642.607 293.643 642.6 298.91C642.636 304.448 640.983 309.866 637.86 314.44C634.7 319.106 629.98 322.89 623.7 325.79C617.42 328.69 609.507 330.12 599.96 330.08Z" fill="white"/>
<path d="M696.22 328.39H672.96V227.77H696.25L696.22 328.39ZM743.66 287.13H694.5V267.44H743.66V287.13ZM741.96 227.77H765.25V328.39H741.96V227.77Z" fill="white"/>
<path d="M852.33 330.08C844.797 330.154 837.315 328.835 830.26 326.19C823.746 323.758 817.785 320.045 812.73 315.27C807.81 310.601 803.897 304.976 801.23 298.74C795.763 285.481 795.763 270.598 801.23 257.34C803.907 251.092 807.846 245.464 812.8 240.81C817.873 236.059 823.829 232.349 830.33 229.89C844.459 224.703 859.971 224.703 874.1 229.89C880.562 232.35 886.475 236.061 891.5 240.81C899.031 248.197 904.162 257.681 906.225 268.026C908.289 278.372 907.19 289.098 903.07 298.81C900.379 305.05 896.442 310.675 891.5 315.34C886.461 320.054 880.551 323.739 874.1 326.19C867.15 328.834 859.766 330.153 852.33 330.08ZM852.18 310.24C856.437 310.284 860.661 309.503 864.62 307.94C868.365 306.433 871.767 304.185 874.62 301.33C877.516 298.415 879.789 294.941 881.3 291.12C884.46 282.686 884.46 273.394 881.3 264.96C879.795 261.152 877.548 257.682 874.69 254.75C871.852 251.877 868.446 249.626 864.69 248.14C860.705 246.581 856.459 245.8 852.18 245.84C847.927 245.795 843.706 246.576 839.75 248.14C836.005 249.645 832.603 251.894 829.75 254.75C826.854 257.665 824.582 261.139 823.07 264.96C819.897 273.367 819.897 282.643 823.07 291.05C824.558 294.887 826.807 298.384 829.68 301.33C832.513 304.211 835.92 306.463 839.68 307.94C843.659 309.513 847.902 310.308 852.18 310.28V310.24Z" fill="white"/>
<path d="M939.14 328.39V227.77H982.7C991.713 227.77 999.477 229.23 1005.99 232.15C1012.14 234.775 1017.39 239.149 1021.08 244.73C1024.63 250.19 1026.41 256.706 1026.4 264.28C1026.39 271.853 1024.62 278.32 1021.08 283.68C1017.4 289.266 1012.15 293.642 1005.99 296.26C999.47 299.193 991.707 300.656 982.7 300.65H952.08L962.43 290.16V328.39H939.14ZM962.43 292.74L952.08 281.67H981.41C988.59 281.67 993.957 280.136 997.51 277.07C1001.06 274.003 1002.83 269.74 1002.82 264.28C1002.82 258.72 1001.05 254.406 997.51 251.34C993.97 248.273 988.603 246.74 981.41 246.74H952.08L962.43 235.67V292.74Z" fill="white"/>
<path d="M1057.31 328.39V227.77H1080.59V328.39H1057.31Z" fill="white"/>
<path d="M1142.11 328.39H1118.82V227.77H1194.87V246.46H1142.11V328.39ZM1140.39 273.08H1188.68V291.77H1140.39V273.08Z" fill="white"/>
<path d="M1250.07 328.39V287.28L1255.39 301.37L1211.11 227.77H1235.83L1269.76 284.26H1255.53L1289.6 227.77H1312.45L1268.18 301.37L1273.35 287.28V328.39H1250.07Z" fill="white"/>
<path d="M1385.18 329.26C1377.94 329.331 1370.75 328.038 1363.98 325.45C1357.72 323.031 1352 319.39 1347.16 314.74C1342.41 310.128 1338.65 304.599 1336.1 298.49C1330.82 285.395 1330.82 270.764 1336.1 257.67C1338.65 251.546 1342.45 246.016 1347.24 241.43C1352.11 236.78 1357.85 233.14 1364.13 230.72C1370.89 228.125 1378.09 226.832 1385.33 226.91C1392.51 226.823 1399.64 228.039 1406.39 230.5C1412.62 232.8 1418.21 236.546 1422.7 241.43L1416.09 248.18C1412.17 244.162 1407.41 241.067 1402.15 239.12C1396.88 237.274 1391.34 236.35 1385.76 236.39C1379.89 236.325 1374.06 237.373 1368.58 239.48C1363.52 241.441 1358.9 244.398 1354.99 248.177C1351.09 251.956 1347.99 256.48 1345.87 261.48C1341.56 272.103 1341.56 283.986 1345.87 294.61C1347.97 299.628 1351.07 304.169 1354.97 307.962C1358.88 311.754 1363.5 314.719 1368.58 316.68C1374 318.774 1379.77 319.823 1385.58 319.769C1391.12 319.799 1396.63 318.924 1401.89 317.18C1407.2 315.338 1412.04 312.343 1416.05 308.41L1422.05 316.46C1417.14 320.743 1411.42 323.994 1405.23 326.019C1398.77 328.182 1392 329.276 1385.18 329.26ZM1411.92 315.17V278.08H1422.13V316.46L1411.92 315.17Z" fill="white"/>
<path d="M1477.18 319.19H1537.7V328.39H1466.55V227.77H1535.55V236.97H1477.19L1477.18 319.19ZM1476.03 272.76H1529.22V281.82H1476.03V272.76Z" fill="white"/>
<path d="M1587.72 319.19H1648.23V328.39H1577.08V227.77H1646.08V236.97H1587.72V319.19ZM1586.56 272.76H1639.75V281.82H1586.56V272.76Z" fill="white"/>
<path d="M1687.62 328.39V227.77H1698.25V328.39H1687.62ZM1696.82 303.39L1696.38 290.45L1757.33 227.78H1769.55L1725.13 274.35L1719.13 280.82L1696.82 303.39ZM1759.92 328.39L1716.51 278.39L1723.7 270.62L1772.57 328.409L1759.92 328.39Z" fill="white"/>
<path d="M1829.78 329.26C1822.46 329.282 1815.19 328.041 1808.29 325.59C1801.44 323.143 1796.15 320.003 1792.4 316.17L1796.57 307.98C1800.72 311.799 1805.58 314.756 1810.88 316.68C1816.9 319.03 1823.31 320.224 1829.78 320.2C1836.1 320.2 1841.26 319.41 1845.23 317.83C1848.72 316.605 1851.77 314.379 1854 311.43C1855.84 308.826 1856.82 305.71 1856.8 302.52C1856.96 299.037 1855.75 295.63 1853.43 293.03C1850.95 290.492 1847.93 288.55 1844.59 287.35C1840.65 285.871 1836.61 284.645 1832.51 283.68C1828.1 282.626 1823.7 281.503 1819.29 280.31C1815.07 279.182 1810.99 277.564 1807.14 275.49C1803.57 273.581 1800.51 270.837 1798.23 267.49C1795.98 264.19 1794.86 259.856 1794.85 254.49C1794.82 249.628 1796.19 244.86 1798.8 240.76C1801.47 236.586 1805.52 233.233 1810.95 230.7C1816.38 228.166 1823.38 226.896 1831.95 226.89C1837.64 226.895 1843.29 227.693 1848.76 229.26C1853.88 230.636 1858.74 232.846 1863.14 235.8L1859.54 244.28C1855.33 241.455 1850.7 239.321 1845.82 237.96C1841.26 236.665 1836.56 235.992 1831.82 235.96C1825.82 235.96 1820.84 236.776 1816.87 238.41C1813.39 239.69 1810.37 241.964 1808.18 244.95C1806.31 247.675 1805.33 250.914 1805.37 254.22C1805.21 257.704 1806.42 261.111 1808.75 263.71C1811.24 266.253 1814.29 268.171 1817.66 269.31C1821.64 270.737 1825.69 271.935 1829.81 272.9C1834.22 273.96 1838.61 275.113 1842.96 276.36C1847.14 277.533 1851.19 279.145 1855.04 281.17C1858.6 283.027 1861.65 285.713 1863.95 289C1866.2 292.26 1867.33 296.526 1867.33 301.8C1867.35 306.62 1865.96 311.342 1863.33 315.38C1860.66 319.553 1856.57 322.91 1851.04 325.45C1845.51 327.99 1838.43 329.26 1829.78 329.26Z" fill="white"/>
<path d="M273.28 336.39H207.08L338.34 108.28H252.44L78.3398 410.85H253.17L161.17 552.22H249.99L326.51 434.59C332.748 424.999 336.281 413.902 336.737 402.47C337.192 391.037 334.553 379.694 329.097 369.638C323.642 359.581 315.573 351.183 305.741 345.331C295.91 339.479 284.681 336.39 273.24 336.39H273.28Z" fill="#A4DE02"/>
<path d="M559.12 0H475.32L353.54 232.62H353.6L322.32 292.36H406.11L527.89 59.74H527.84L559.12 0Z" fill="#A4DE02"/>
<path d="M50.15 203.5L0 291.14H85.78L135.93 203.5H50.15Z" fill="#A4DE02"/>
</svg>
