<svg width="36" height="13" viewBox="0 0 36 13" fill="none" xmlns="http://www.w3.org/2000/svg">
<path d="M29 1.45465V6.5V11.5454C29 11.7194 29.2068 11.8104 29.3351 11.6928L35 6.5L29.3351 1.30722C29.2068 1.18963 29 1.28063 29 1.45465Z" fill="#FF3D4F"/>
<path d="M0.5 6C0.223858 6 0 6.22386 0 6.5C0 6.77614 0.223858 7 0.5 7V6ZM29.3351 1.30722L28.9972 1.67579L28.9972 1.67579L29.3351 1.30722ZM35 6.5L35.3378 6.86858L35.7399 6.5L35.3378 6.13142L35 6.5ZM29.3351 11.6928L28.9972 11.3242L28.9972 11.3242L29.3351 11.6928ZM0.5 7H29V6H0.5V7ZM29.5 6.5V1.45465H28.5V6.5H29.5ZM28.9972 1.67579L34.6621 6.86858L35.3378 6.13142L29.673 0.938639L28.9972 1.67579ZM34.6621 6.13142L28.9972 11.3242L29.673 12.0614L35.3378 6.86858L34.6621 6.13142ZM29.5 11.5454V6.5H28.5V11.5454H29.5ZM28.9972 11.3242C29.1897 11.1478 29.5 11.2843 29.5 11.5454H28.5C28.5 12.1544 29.224 12.4729 29.673 12.0614L28.9972 11.3242ZM29.5 1.45465C29.5 1.71567 29.1897 1.85218 28.9972 1.67579L29.673 0.938641C29.224 0.527068 28.5 0.845578 28.5 1.45465H29.5Z" fill="#FF3D4F"/>
</svg>
