<svg width="22" height="13" viewBox="0 0 22 13" fill="none" xmlns="http://www.w3.org/2000/svg">
<path d="M14.8461 1.44699V6.5V11.553C14.8461 11.7258 15.0506 11.8173 15.1794 11.7021L21 6.5L15.1794 1.29787C15.0506 1.1827 14.8461 1.27416 14.8461 1.44699Z" fill="#555555"/>
<path d="M1 6C0.723858 6 0.5 6.22386 0.5 6.5C0.5 6.77614 0.723858 7 1 7V6ZM15.1794 1.29787L15.5126 0.925062V0.925062L15.1794 1.29787ZM21 6.5L21.3332 6.8728L21.7503 6.5L21.3332 6.1272L21 6.5ZM15.1794 11.7021L15.5126 12.0749H15.5126L15.1794 11.7021ZM1 7H14.8461V6H1V7ZM15.3461 6.5V1.44699H14.3461V6.5H15.3461ZM14.8462 1.67067L20.6668 6.8728L21.3332 6.1272L15.5126 0.925062L14.8462 1.67067ZM20.6668 6.1272L14.8462 11.3293L15.5126 12.0749L21.3332 6.8728L20.6668 6.1272ZM15.3461 11.553V6.5H14.3461V11.553H15.3461ZM14.8462 11.3293C15.0395 11.1566 15.3461 11.2938 15.3461 11.553H14.3461C14.3461 12.1579 15.0616 12.478 15.5126 12.0749L14.8462 11.3293ZM15.3461 1.44699C15.3461 1.70623 15.0395 1.84342 14.8462 1.67067L15.5126 0.925062C15.0616 0.521972 14.3461 0.842096 14.3461 1.44699H15.3461Z" fill="#555555"/>
</svg>
