<svg width="70" height="70" viewBox="0 0 70 70" xmlns="http://www.w3.org/2000/svg">
<path d="M15.6605 5.63239C15.8111 6.40864 16.1865 7.14998 16.7874 7.75091C17.99 8.95349 19.752 9.25395 21.2347 8.6523C21.7287 8.45223 22.1921 8.15104 22.593 7.75091C22.7734 7.57049 22.9269 7.37406 23.0666 7.17108C23.1088 7.10997 23.1451 7.0474 23.183 6.98484C23.2288 6.9099 23.2819 6.8386 23.3227 6.76149C23.3132 6.76658 23.303 6.76876 23.2936 6.77386C24.1229 5.22061 23.9018 3.25414 22.593 1.94534C21.2834 0.635817 19.317 0.414652 17.7644 1.24402C17.7695 1.23456 17.7717 1.22438 17.7768 1.21492C17.6997 1.25566 17.6284 1.30877 17.5542 1.3546C17.4916 1.39316 17.4291 1.42954 17.3679 1.471C17.165 1.61069 16.9685 1.76419 16.7881 1.94462C16.3873 2.34548 16.0868 2.80818 15.8867 3.30216C15.6867 3.79614 15.5863 4.32141 15.5863 4.84667C15.5855 5.11076 15.6103 5.37339 15.6605 5.63239Z"/>
<path d="M25.6805 16.6433L38.4913 29.4548C40.0947 31.0575 42.6934 31.0575 44.2969 29.4548C44.4176 29.334 44.526 29.206 44.6286 29.075C44.6191 29.0787 44.6097 29.0801 44.6002 29.083C45.8734 27.4716 45.7846 25.137 44.2969 23.6492L31.4853 10.8384C30.3155 9.66859 28.6167 9.36231 27.1603 9.90067C27.1624 9.89776 27.1632 9.89485 27.1653 9.89194C27.1479 9.89849 27.1304 9.90722 27.113 9.91449C27.054 9.93704 26.9966 9.96323 26.9384 9.9887C26.739 10.0753 26.5433 10.1749 26.3571 10.295C26.3258 10.3154 26.2967 10.3386 26.2661 10.3597C26.0602 10.5001 25.8624 10.6558 25.6805 10.8384C24.8788 11.6402 24.4779 12.6907 24.4779 13.7412C24.4779 14.2665 24.5783 14.7917 24.7784 15.2857C24.9792 15.7797 25.2796 16.2424 25.6805 16.6433Z"/>
<path d="M42.0562 13.7216C42.8579 14.5233 43.9084 14.9242 44.9589 14.9242C45.4842 14.9242 46.0095 14.8238 46.5035 14.6237C46.9974 14.4237 47.4609 14.1225 47.861 13.7216C47.861 13.7216 47.8617 13.7209 47.8617 13.7202C48.0414 13.5405 48.1949 13.3448 48.3339 13.1425C48.3826 13.0712 48.4234 12.9977 48.4677 12.9243C48.5143 12.8457 48.5696 12.7708 48.6111 12.69C48.6023 12.6944 48.5936 12.6966 48.5849 12.7009C49.3866 11.155 49.1574 9.21322 47.861 7.91606L41.1344 1.18946C39.8372 -0.107697 37.8955 -0.336137 36.3495 0.465584C36.3539 0.456854 36.3561 0.448124 36.3605 0.439394C36.2797 0.480862 36.2048 0.536153 36.1262 0.582714C36.0527 0.626365 35.9792 0.667106 35.9087 0.715849C35.7064 0.854805 35.5107 1.00831 35.331 1.18801L35.3303 1.18873C34.7294 1.78966 34.3532 2.531 34.2034 3.30726C33.9531 4.60078 34.3285 5.99178 35.3303 6.99357L42.0562 13.7216Z"/>
<path d="M69.5344 36.3495C69.5431 36.3539 69.5518 36.3561 69.5606 36.3604C69.5191 36.2797 69.4638 36.2047 69.4165 36.1254C69.3729 36.0527 69.3321 35.9792 69.2834 35.9079C69.1444 35.7049 68.9909 35.5092 68.8105 35.3288C67.2078 33.7254 64.6084 33.7254 63.0056 35.3288L56.2791 42.0554C55.2773 43.0572 54.9011 44.4482 55.1521 45.7417C55.3027 46.518 55.6781 47.2593 56.2791 47.8602C56.2791 47.861 56.2798 47.861 56.2798 47.861C56.4602 48.0407 56.6552 48.1942 56.8582 48.3331C56.9287 48.3819 57.0029 48.4226 57.0757 48.467C57.1543 48.5143 57.2292 48.5688 57.3099 48.6103C57.3056 48.6016 57.3034 48.5928 57.299 48.5841C58.845 49.3858 60.7867 49.1567 62.0839 47.8602L68.8105 41.1336C70.1076 39.8372 70.3361 37.8955 69.5344 36.3495Z"/>
<path d="M39.4181 42.1784C39.5687 42.9546 39.9441 43.696 40.5451 44.2969C40.5451 44.2969 40.5458 44.2969 40.5458 44.2976C40.6666 44.4184 40.7939 44.5268 40.9248 44.6286C40.9212 44.6192 40.9197 44.6097 40.9168 44.6003C42.5283 45.8734 44.8629 45.7847 46.3506 44.2969L59.1622 31.4854C60.332 30.3148 60.6383 28.6168 60.0999 27.1603C60.1029 27.1625 60.1058 27.1639 60.1087 27.1654C60.1021 27.1479 60.0934 27.1312 60.0861 27.1137C60.0636 27.0541 60.0366 26.9973 60.0112 26.9384C59.9246 26.739 59.8249 26.5441 59.7056 26.3571C59.6853 26.3258 59.662 26.2967 59.6409 26.2662C59.5012 26.0603 59.3448 25.8624 59.1622 25.6805C58.5612 25.0796 57.8199 24.7035 57.0436 24.5536C55.7501 24.3033 54.3591 24.6787 53.3573 25.6805L40.5458 38.492C39.5433 39.4938 39.1679 40.8848 39.4181 42.1784Z"/>
<path d="M62.249 22.5929C62.4295 22.7734 62.6259 22.9269 62.8289 23.0666C62.89 23.1087 62.9525 23.1451 63.0151 23.183C63.09 23.2288 63.1613 23.2819 63.2377 23.3226C63.2326 23.3132 63.2305 23.303 63.2254 23.2935C64.7779 24.1229 66.7451 23.9017 68.0539 22.5929C69.3634 21.2834 69.5846 19.3169 68.7552 17.7644C68.7647 17.7695 68.7748 17.7717 68.7843 17.7768C68.7436 17.6997 68.6905 17.6284 68.6446 17.5542C68.6061 17.4916 68.5697 17.429 68.5275 17.3679C68.3878 17.1649 68.2343 16.9685 68.0539 16.7881C66.4512 15.1854 63.8518 15.1854 62.249 16.7881C60.6463 18.3908 60.6463 20.9902 62.249 22.5929Z"/>
<path d="M53.2126 62.249C52.01 61.0464 50.2479 60.7459 48.7653 61.3476C48.2713 61.5476 47.8079 61.8488 47.407 62.249C47.2266 62.4294 47.0731 62.6258 46.9334 62.8288C46.8912 62.8899 46.8548 62.9525 46.817 63.015C46.7712 63.09 46.718 63.1613 46.6773 63.2384C46.6868 63.2333 46.6969 63.2311 46.7064 63.226C45.877 64.7785 46.0982 66.7457 47.407 68.0545C48.7165 69.3641 50.683 69.5852 52.2355 68.7559C52.2304 68.7653 52.2282 68.7755 52.2232 68.785C52.3003 68.7442 52.3716 68.6911 52.4458 68.6453C52.5083 68.6067 52.5709 68.5704 52.632 68.5289C52.835 68.3892 53.0314 68.2357 53.2118 68.0553C54.8153 66.4511 54.8153 63.8524 53.2126 62.249Z"/>
<path d="M44.3194 53.3567L31.5079 40.5451C30.907 39.9442 30.1656 39.5681 29.3894 39.4182C28.8721 39.3178 28.3388 39.3178 27.8216 39.4182C27.0453 39.5688 26.304 39.9442 25.7031 40.5451C25.5823 40.6659 25.4739 40.7939 25.3713 40.9249C25.3808 40.9212 25.3902 40.9198 25.3997 40.9169C24.1265 42.5283 24.216 44.8629 25.7031 46.3507L38.5146 59.1622C39.6844 60.3321 41.3832 60.6384 42.8397 60.1C42.8375 60.1029 42.836 60.1058 42.8346 60.1087C42.852 60.1022 42.8695 60.0934 42.8869 60.0862C42.9459 60.0636 43.0033 60.0374 43.0615 60.0112C43.2609 59.9247 43.4566 59.825 43.6428 59.7057C43.6741 59.6853 43.7032 59.662 43.7338 59.6409C43.9397 59.5012 44.1375 59.3448 44.3194 59.1622C44.9203 58.5613 45.2965 57.82 45.4463 57.0437C45.5969 56.2674 45.5213 55.4563 45.2208 54.7149C45.0207 54.2202 44.7203 53.7575 44.3194 53.3567Z"/>
<path d="M27.9438 56.2783C26.942 55.2765 25.551 54.9004 24.2575 55.1514C23.4812 55.302 22.7399 55.6774 22.139 56.2783C21.9585 56.4588 21.805 56.6545 21.6661 56.8574C21.6173 56.928 21.5766 57.0015 21.5329 57.075C21.4857 57.1535 21.4304 57.2285 21.3889 57.3099C21.3976 57.3056 21.4064 57.3034 21.4151 57.299C20.6134 58.845 20.8425 60.7867 22.139 62.0839L28.8656 68.8105C30.1627 70.1077 32.1045 70.3361 33.6504 69.5344C33.6461 69.5431 33.6439 69.5518 33.6395 69.5606C33.7203 69.5191 33.7952 69.4638 33.8738 69.4165C33.9473 69.3729 34.02 69.3321 34.0913 69.2834C34.2943 69.1444 34.49 68.9909 34.6704 68.8105C36.2731 67.2078 36.2731 64.6084 34.6704 63.0057L27.9438 56.2783Z"/>
<path d="M8.87785 49.5255C8.72725 48.7493 8.35186 48.0079 7.75093 47.407C7.57051 47.2266 7.37408 47.0731 7.1711 46.9334C7.10999 46.8912 7.04742 46.8556 6.98486 46.817C6.90992 46.7712 6.83863 46.7181 6.76151 46.6773C6.7666 46.6868 6.76878 46.697 6.77388 46.7064C5.22136 45.8771 3.25416 46.0982 1.94536 47.4077C0.635836 48.7173 0.414672 50.6837 1.24477 52.2363C1.23531 52.2312 1.22512 52.229 1.21567 52.2239C1.25641 52.301 1.30951 52.3723 1.35535 52.4472C1.39391 52.5098 1.43028 52.5724 1.47175 52.6335C1.61143 52.8365 1.76494 53.0329 1.94536 53.2133C3.5488 54.816 6.14749 54.816 7.75093 53.2133C8.55265 52.4116 8.95351 51.3611 8.95351 50.3105C8.95278 50.0472 8.92805 49.7845 8.87785 49.5255Z"/>
<path d="M30.3562 30.1504C30.557 29.6564 30.6567 29.1312 30.6567 28.6059C30.6567 28.3433 30.632 28.0806 30.5818 27.8216C30.4312 27.0454 30.0558 26.304 29.4549 25.7031C29.3341 25.5824 29.206 25.474 29.0751 25.3714C29.0787 25.3808 29.0802 25.3903 29.0831 25.3997C27.4717 24.1266 25.1371 24.2154 23.6493 25.7031L10.8378 38.5146C9.66792 39.6845 9.36164 41.3832 9.9 42.8397C9.89709 42.8375 9.89418 42.8361 9.89127 42.8346C9.89781 42.8521 9.90727 42.8695 9.91382 42.887C9.93637 42.9459 9.96256 43.0034 9.98803 43.0609C10.0753 43.261 10.1743 43.4559 10.2943 43.6429C10.3147 43.6742 10.338 43.7033 10.3591 43.7338C10.4995 43.9397 10.6552 44.1376 10.8378 44.3202C12.4405 45.9229 15.0399 45.9229 16.6433 44.3202L29.4541 31.5087C29.8557 31.1078 30.1562 30.6444 30.3562 30.1504Z"/>
<path d="M0.583437 33.8745C0.627088 33.9472 0.667828 34.0207 0.716572 34.092C0.855527 34.295 1.00903 34.4907 1.18946 34.6711C1.79038 35.272 2.53172 35.6481 3.30798 35.798C3.56697 35.8482 3.82961 35.8729 4.09224 35.8729C4.61751 35.8729 5.14277 35.7725 5.63675 35.5725C6.13074 35.3724 6.59416 35.0712 6.9943 34.6711L13.7209 27.9445C15.3236 26.3418 15.3236 23.7424 13.7209 22.1397C13.5405 21.9592 13.3448 21.8057 13.1418 21.6668C13.0712 21.618 12.9977 21.5773 12.9243 21.5336C12.8457 21.4863 12.7708 21.4311 12.6893 21.3896C12.6936 21.3983 12.6958 21.407 12.7002 21.4158C11.1542 20.6141 9.21249 20.8425 7.91533 22.1397L1.18873 28.8663C-0.10843 30.1634 -0.336869 32.1051 0.464852 33.6511C0.456122 33.6467 0.447391 33.6446 0.438661 33.6402C0.480857 33.7202 0.536148 33.7959 0.583437 33.8745Z"/>
</svg>
