<svg width="70" height="70" viewBox="0 0 70 70" fill="none" xmlns="http://www.w3.org/2000/svg">
<path d="M65.303 11.144C64.666 9.702 63.455 9.177 61.936 9.177C52.962 9.198 43.995 9.198 35.007 9.198H8.281C5.607 9.198 4.375 10.409 4.375 13.069V57.211C4.375 58.233 4.606 59.136 5.355 59.871C6.125 60.641 7.105 60.816 8.148 60.816H62.013C64.246 60.816 65.611 59.486 65.611 57.309C65.632 42.448 65.632 27.566 65.611 12.684C65.611 12.166 65.513 11.606 65.303 11.144ZM21.28 13.223C22.358 13.223 22.918 13.762 22.918 14.84C22.918 15.939 22.414 16.457 21.322 16.478C20.202 16.478 19.705 15.995 19.705 14.882C19.698 13.748 20.181 13.244 21.28 13.223ZM15.659 13.223C16.758 13.223 17.241 13.72 17.241 14.861C17.241 16.016 16.8 16.457 15.659 16.478C14.56 16.478 14.042 15.96 14.042 14.861C14.042 13.783 14.581 13.244 15.659 13.223ZM9.996 13.223C11.053 13.223 11.634 13.762 11.648 14.84C11.669 15.918 11.13 16.457 10.052 16.478C8.918 16.478 8.414 15.995 8.393 14.903C8.379 13.804 8.918 13.244 9.996 13.223ZM64.015 57.001C64.015 58.639 63.476 59.157 61.859 59.157H8.071C6.531 59.157 5.971 58.618 5.971 57.078V20.538H64.008L64.015 57.001ZM32.998 53.592C35.322 53.032 36.428 50.603 35.343 48.468C35.28 48.342 35.266 48.111 35.343 48.006C36.253 46.76 37.177 45.535 38.108 44.31C38.171 44.233 38.339 44.17 38.437 44.198C39.424 44.443 40.334 44.254 41.216 43.722C41.314 43.792 41.398 43.841 41.475 43.897C42.686 44.807 43.897 45.71 45.094 46.627C45.185 46.697 45.22 46.9 45.22 47.04C45.22 47.467 45.136 47.901 45.185 48.314C45.367 49.798 46.459 50.939 47.957 51.261C49.35 51.562 50.855 50.904 51.618 49.672C52.409 48.391 52.325 46.788 51.387 45.626C51.219 45.416 51.212 45.276 51.331 45.052C52.584 42.567 53.83 40.075 55.069 37.576C55.195 37.324 55.321 37.233 55.629 37.247C57.554 37.331 59.192 35.7 59.192 33.747C59.192 31.801 57.533 30.149 55.622 30.233C54.187 30.296 53.088 30.968 52.493 32.284C51.919 33.558 52.066 34.797 52.934 35.924C53.074 36.106 53.137 36.239 53.018 36.477C51.744 38.997 50.477 41.531 49.196 44.051C49.133 44.17 48.937 44.296 48.804 44.296C48.132 44.289 47.509 44.422 46.928 44.758C46.739 44.87 46.627 44.842 46.459 44.716C45.297 43.834 44.135 42.959 42.959 42.098C42.707 41.909 42.623 41.748 42.693 41.419C43.225 39.011 40.936 36.778 38.535 37.345C36.19 37.898 35.084 40.348 36.19 42.497C36.246 42.609 36.246 42.826 36.176 42.924C35.273 44.156 34.356 45.374 33.432 46.585C33.355 46.683 33.166 46.732 33.033 46.732C32.55 46.739 32.06 46.648 31.591 46.718C29.694 47.005 28.413 48.923 28.784 50.855C29.169 52.752 31.136 54.033 32.998 53.592ZM16.863 44.716C20.671 45.997 24.192 44.583 26.096 42.532C26.082 42.511 26.075 42.483 26.054 42.462L23.786 40.495C22.365 39.263 20.937 38.038 19.523 36.799C19.39 36.68 19.278 36.505 19.222 36.33C18.557 34.307 17.913 32.284 17.255 30.261C17.003 29.484 16.751 28.714 16.492 27.916C13.454 29.071 10.794 32.228 10.787 36.323C10.794 40.026 13.279 43.512 16.863 44.716ZM20.517 36.351C20.909 36.687 21.294 37.023 21.679 37.359C22.925 38.437 24.171 39.515 25.424 40.593C25.872 40.985 26.327 41.37 26.775 41.755C30.45 37.044 28.378 30.863 24.465 28.693C24.444 28.714 24.423 28.728 24.409 28.749C23.093 31.178 21.77 33.614 20.447 36.043C20.377 36.19 20.419 36.267 20.517 36.351ZM23.576 28.196C22.022 27.307 19.208 27.062 17.458 27.636C18.256 30.107 19.047 32.571 19.859 35.091C21.126 32.753 22.351 30.471 23.576 28.196Z" fill="#555555"/>
</svg>
