<svg width="70" height="70" viewBox="0 0 70 70" fill="none" xmlns="http://www.w3.org/2000/svg">
<path d="M5.625 10.9375C5.625 9.52854 6.18471 8.17728 7.181 7.181C8.17728 6.18471 9.52854 5.625 10.9375 5.625H24.0625C25.4715 5.625 26.8227 6.18471 27.819 7.181C28.8153 8.17728 29.375 9.52854 29.375 10.9375V24.0625C29.375 25.4715 28.8153 26.8227 27.819 27.819C26.8227 28.8153 25.4715 29.375 24.0625 29.375H10.9375C9.52854 29.375 8.17728 28.8153 7.181 27.819C6.18471 26.8227 5.625 25.4715 5.625 24.0625V10.9375ZM40.625 10.9375C40.625 9.52854 41.1847 8.17728 42.181 7.181C43.1773 6.18471 44.5285 5.625 45.9375 5.625H59.0625C60.4715 5.625 61.8227 6.18471 62.819 7.18099C63.8153 8.17728 64.375 9.52854 64.375 10.9375V24.0625C64.375 25.4715 63.8153 26.8227 62.819 27.819C61.8227 28.8153 60.4715 29.375 59.0625 29.375H45.9375C44.5285 29.375 43.1773 28.8153 42.181 27.819C41.1847 26.8227 40.625 25.4715 40.625 24.0625V10.9375ZM5.625 45.9375C5.625 44.5285 6.18471 43.1773 7.18099 42.181C8.17728 41.1847 9.52854 40.625 10.9375 40.625H24.0625C25.4715 40.625 26.8227 41.1847 27.819 42.181C28.8153 43.1773 29.375 44.5285 29.375 45.9375V59.0625C29.375 60.4715 28.8153 61.8227 27.819 62.819C26.8227 63.8153 25.4715 64.375 24.0625 64.375H10.9375C9.52854 64.375 8.17728 63.8153 7.181 62.819C6.18471 61.8227 5.625 60.4715 5.625 59.0625V45.9375ZM40.625 45.9375C40.625 44.5285 41.1847 43.1773 42.181 42.181C43.1773 41.1847 44.5285 40.625 45.9375 40.625H59.0625C60.4715 40.625 61.8227 41.1847 62.819 42.181C63.8153 43.1773 64.375 44.5285 64.375 45.9375V59.0625C64.375 60.4715 63.8153 61.8227 62.819 62.819C61.8227 63.8153 60.4715 64.375 59.0625 64.375H45.9375C44.5285 64.375 43.1773 63.8153 42.181 62.819C41.1847 61.8227 40.625 60.4715 40.625 59.0625V45.9375Z" stroke="#C8C8C8" stroke-width="2.5"/>
</svg>
