<svg width="110" height="110" viewBox="0 0 110 110" fill="none" xmlns="http://www.w3.org/2000/svg">
<path d="M75.0997 47.915C74.6276 47.4575 73.8622 47.4575 73.3902 47.915C72.9181 48.3728 72.9181 49.1148 73.3902 49.5724C73.4088 49.5904 73.4281 49.6088 73.4468 49.6257C73.6801 49.8375 73.9769 49.9422 74.273 49.9422C74.5955 49.9422 74.9176 49.8177 75.1554 49.5715C75.6119 49.0993 75.5869 48.3575 75.0997 47.915Z" fill="#C8C8C8"/>
<path d="M72.644 45.9906C71.9521 45.5351 71.2417 45.1288 70.5326 44.7827C66.5212 42.8258 62.2703 42.433 58.2393 43.6466C57.6018 43.8387 57.2453 44.4953 57.4434 45.1133C57.6414 45.7315 58.3185 46.0767 58.9563 45.8849C62.3776 44.8547 66.0048 45.1976 69.4457 46.8761C70.0526 47.1725 70.689 47.537 71.2862 47.9297C71.4942 48.0665 71.7303 48.1323 71.9639 48.1323C72.351 48.1323 72.7314 47.9524 72.9652 47.6184C73.3401 47.083 73.1963 46.3541 72.644 45.9906Z" fill="#C8C8C8"/>
<path d="M83.6407 61.1556C83.1451 60.1478 82.3245 58.4788 82.3097 57.9267C83.7233 54.5489 83.2076 50.811 80.8532 47.3918C77.2325 42.1333 69.8119 38.3165 63.2087 38.3165C59.7183 38.3165 56.3099 39.1235 53.2435 40.6639C52.3637 35.9908 48.1364 32.4364 43.0661 32.4364C37.3599 32.4364 32.7178 36.9369 32.7178 42.4687C32.7178 45.9882 34.5679 49.1882 37.6665 51.0286C38.5598 51.5592 38.7619 52.0179 38.8337 52.7694V56.7705V59.6268C38.8337 60.9353 39.9315 61.9998 41.2808 61.9998H41.6918C42.3558 67.1298 44.9167 71.7874 48.9818 75.2148C49.0201 75.3305 49.1319 75.8732 48.6516 77.4924C48.2775 78.7538 47.7033 80.155 47.1969 81.3913C46.858 82.2186 46.5652 82.9331 46.3883 83.4733C46.2716 83.8294 46.3371 84.2183 46.5648 84.52C46.7925 84.8216 47.1549 85 47.5404 85H64.795C65.3619 85 66.1406 84.7539 66.6307 83.5815C66.8441 83.0712 66.9833 82.4574 67.1309 81.8074C67.2745 81.1741 67.6113 79.6908 67.9461 79.5117C67.9464 79.5117 67.966 79.5085 68.0132 79.5155C68.0752 79.5251 68.138 79.5297 68.2008 79.5297C70.0078 79.5297 71.4843 79.6092 72.787 79.6791C76.6078 79.8847 78.9142 80.0088 80.9373 77.1836C81.9662 75.7467 81.8496 73.651 81.7262 71.4323C81.6626 70.2888 81.5969 69.1085 81.7135 68.1273C81.9244 67.9258 82.4526 67.5743 82.7838 67.3538C83.9233 66.5951 84.9995 65.8787 84.9995 64.7894C84.9999 63.9615 84.4834 62.8692 83.6407 61.1556ZM38.9297 49.0299C36.5538 47.6189 35.1354 45.1662 35.1354 42.4686C35.1354 38.229 38.6932 34.78 43.0662 34.78C47.4393 34.78 50.997 38.2291 50.997 42.4686C50.997 45.1662 49.5787 47.6191 47.2027 49.0301C46.0736 49.701 45.4025 50.4835 45.084 51.5407L43.0658 51.54L41.0486 51.5407C40.7299 50.4836 40.0589 49.701 38.9297 49.0299ZM44.8812 53.8847V55.5986H41.2515V53.8847H44.8812ZM41.2811 59.6559C41.2677 59.6559 41.2515 59.6398 41.2515 59.6266V57.9423H44.8812V59.6266C44.8812 59.6399 44.8649 59.6559 44.8512 59.6559H41.2811ZM81.4156 65.4215C80.3752 66.1144 79.4766 66.7125 79.3441 67.6176C79.1621 68.8593 79.2385 70.2315 79.3122 71.5583C79.4039 73.2044 79.5076 75.0703 78.9515 75.8469C77.7488 77.5266 76.7085 77.5429 72.9211 77.3389C71.6715 77.2716 70.1208 77.1883 68.2824 77.1857C67.5764 77.1051 66.3817 77.2335 65.5846 78.736C65.1796 79.4989 64.962 80.4576 64.7701 81.3033C64.6736 81.7284 64.5381 82.3256 64.4112 82.656H49.2805C49.3334 82.5265 49.3881 82.3931 49.4442 82.2562C51.1855 78.0055 52.2884 74.8878 50.6097 73.4809C47.0515 70.4974 44.7824 66.4575 44.1317 61.9997H44.8513C46.2009 61.9997 47.2988 60.9351 47.2988 59.6266V56.7704V52.7717C47.3705 52.0187 47.572 51.5597 48.466 51.0285C51.3273 49.329 53.1226 46.47 53.381 43.2709C56.3478 41.5618 59.7319 40.6601 63.2088 40.6601C68.9684 40.6601 75.6895 44.1135 78.8426 48.693C80.194 50.6556 81.4994 53.7089 80.0431 57.1085C79.5687 58.2156 80.272 59.751 81.4585 62.1641C81.8427 62.9453 82.3987 64.0761 82.5459 64.6044C82.2962 64.8354 81.7593 65.1928 81.4156 65.4215Z" fill="#C8C8C8"/>
<path d="M48.9975 40.8128C48.6405 39.5302 47.7532 38.5029 46.4311 37.8417C45.8379 37.5453 45.1088 37.7708 44.8027 38.3462C44.4967 38.9214 44.7295 39.6282 45.3229 39.9248C46.0447 40.2857 46.4832 40.776 46.6633 41.4233C46.9485 42.4479 46.5172 43.5566 46.3279 43.8446C45.969 44.3904 46.1345 45.1149 46.6974 45.4628C46.8988 45.5874 47.1238 45.6466 47.346 45.6466C47.7453 45.6466 48.136 45.4552 48.3664 45.1046C48.882 44.3207 49.4755 42.5306 48.9975 40.8128Z" fill="#C8C8C8"/>
<path d="M43.0672 25C42.3996 25 41.8584 25.5249 41.8584 26.1719V29.5126C41.8584 30.1596 42.3996 30.6845 43.0672 30.6845C43.7347 30.6845 44.2759 30.1596 44.2759 29.5126V26.1719C44.2759 25.5249 43.7347 25 43.0672 25Z" fill="#C8C8C8"/>
<path d="M29.6547 41.3435H26.2088C25.5412 41.3435 25 41.8684 25 42.5154C25 43.1626 25.5412 43.6872 26.2088 43.6872H29.6549C30.3223 43.6872 30.8635 43.1626 30.8635 42.5154C30.8635 41.8684 30.3222 41.3435 29.6547 41.3435Z" fill="#C8C8C8"/>
<path d="M37.408 30.6677L35.6855 27.7757C35.3516 27.2152 34.6122 27.0234 34.0342 27.3468C33.4561 27.6705 33.258 28.3871 33.5919 28.9476L35.3144 31.8396C35.5384 32.2156 35.9445 32.4257 36.3623 32.4257C36.5674 32.4257 36.7753 32.3751 36.9656 32.2685C37.5437 31.9448 37.7418 31.2282 37.408 30.6677Z" fill="#C8C8C8"/>
<path d="M32.0565 34.9991L29.0731 33.3292C28.4951 33.0058 27.7557 33.1978 27.422 33.7581C27.0881 34.3186 27.2862 35.0352 27.8644 35.3589L30.8477 37.0288C31.038 37.1354 31.2459 37.1861 31.4509 37.1861C31.8687 37.1861 32.2749 36.9759 32.4989 36.5999C32.8328 36.0396 32.6347 35.3228 32.0565 34.9991Z" fill="#C8C8C8"/>
<path d="M58.7138 33.7579C58.3798 33.1974 57.6406 33.0053 57.0626 33.329L54.0792 34.9989C53.5011 35.3226 53.3029 36.0394 53.6368 36.5997C53.8607 36.9757 54.2669 37.1859 54.6847 37.1859C54.8897 37.1859 55.0976 37.1352 55.288 37.0286L58.2714 35.3587C58.8495 35.035 59.0476 34.3184 58.7138 33.7579Z" fill="#C8C8C8"/>
<path d="M32.4995 48.4311C32.1659 47.8706 31.4269 47.6787 30.8486 48.0019L27.8645 49.6719C27.2863 49.9953 27.0881 50.7121 27.4218 51.2726C27.6457 51.6487 28.0521 51.8588 28.4698 51.8588C28.6749 51.8588 28.8826 51.8082 29.073 51.7018L32.057 50.0319C32.6352 49.7084 32.8334 48.9916 32.4995 48.4311Z" fill="#C8C8C8"/>
<path d="M36.717 53.1797C36.139 52.8562 35.3996 53.0483 35.0658 53.6086L33.5918 56.0839C33.258 56.6444 33.4562 57.3613 34.0343 57.6847C34.2247 57.7913 34.4325 57.842 34.6375 57.842C35.0553 57.842 35.4616 57.6318 35.6855 57.2558L37.1595 54.7804C37.4933 54.2199 37.2952 53.5033 36.717 53.1797Z" fill="#C8C8C8"/>
<path d="M52.1004 27.3467C51.5221 27.023 50.783 27.2151 50.4492 27.7756L48.7267 30.6675C48.3928 31.228 48.5908 31.9448 49.169 32.2683C49.3593 32.375 49.5673 32.4256 49.7723 32.4256C50.19 32.4256 50.5963 32.2155 50.8203 31.8394L52.5428 28.9475C52.8766 28.387 52.6785 27.6704 52.1004 27.3467Z" fill="#C8C8C8"/>
<circle cx="55" cy="55" r="54.5" stroke="#C8C8C8"/>
</svg>
