<svg width="50" height="50" viewBox="0 0 50 50" fill="none" xmlns="http://www.w3.org/2000/svg">
<path d="M1.5625 30.9375C1.9769 30.9375 2.37433 31.1021 2.66735 31.3951C2.96038 31.6882 3.125 32.0856 3.125 32.5V40.3125C3.125 41.1413 3.45424 41.9362 4.04029 42.5222C4.62634 43.1083 5.4212 43.4375 6.25 43.4375H43.75C44.5788 43.4375 45.3737 43.1083 45.9597 42.5222C46.5458 41.9362 46.875 41.1413 46.875 40.3125V32.5C46.875 32.0856 47.0396 31.6882 47.3326 31.3951C47.6257 31.1021 48.0231 30.9375 48.4375 30.9375C48.8519 30.9375 49.2493 31.1021 49.5424 31.3951C49.8354 31.6882 50 32.0856 50 32.5V40.3125C50 41.9701 49.3415 43.5598 48.1694 44.7319C46.9973 45.904 45.4076 46.5625 43.75 46.5625H6.25C4.5924 46.5625 3.00269 45.904 1.83058 44.7319C0.65848 43.5598 0 41.9701 0 40.3125V32.5C0 32.0856 0.16462 31.6882 0.457646 31.3951C0.750671 31.1021 1.1481 30.9375 1.5625 30.9375Z" fill="#C8C8C8"/>
<path d="M23.8935 37.0438C24.0387 37.1893 24.2111 37.3047 24.4009 37.3835C24.5907 37.4622 24.7943 37.5028 24.9998 37.5028C25.2053 37.5028 25.4088 37.4622 25.5986 37.3835C25.7885 37.3047 25.9609 37.1893 26.106 37.0438L35.481 27.6688C35.7744 27.3754 35.9392 26.9774 35.9392 26.5625C35.9392 26.1476 35.7744 25.7496 35.481 25.4562C35.1876 25.1629 34.7897 24.998 34.3748 24.998C33.9598 24.998 33.5619 25.1629 33.2685 25.4562L26.5623 32.1656V4.6875C26.5623 4.2731 26.3977 3.87567 26.1046 3.58265C25.8116 3.28962 25.4142 3.125 24.9998 3.125C24.5854 3.125 24.1879 3.28962 23.8949 3.58265C23.6019 3.87567 23.4373 4.2731 23.4373 4.6875V32.1656L16.731 25.4562C16.4376 25.1629 16.0397 24.998 15.6248 24.998C15.2099 24.998 14.8119 25.1629 14.5185 25.4562C14.2251 25.7496 14.0603 26.1476 14.0603 26.5625C14.0603 26.9774 14.2251 27.3754 14.5185 27.6688L23.8935 37.0438Z" fill="#C8C8C8"/>
</svg>
