<svg width="131" height="131" viewBox="0 0 131 131" fill="none" xmlns="http://www.w3.org/2000/svg">
<g opacity="0.2" clip-path="url(#clip0_1013_361)">
<path d="M65.5 113.735C92.1395 113.735 113.735 92.1393 113.735 65.5C113.735 38.8608 92.1395 17.2654 65.5 17.2654C38.8605 17.2654 17.2649 38.8608 17.2649 65.5C17.2649 92.1393 38.8605 113.735 65.5 113.735Z" stroke="white" stroke-width="2" stroke-miterlimit="10"/>
<path d="M65.5006 130.408C29.7098 130.408 0.591675 101.29 0.591675 65.5C0.591675 29.7095 29.7098 0.591705 65.5006 0.591705C101.291 0.591705 130.409 29.7095 130.409 65.5C130.409 101.29 101.291 130.408 65.5006 130.408Z" stroke="white" stroke-width="2" stroke-miterlimit="10"/>
<path d="M65.5005 122.071C34.3061 122.071 8.92883 96.6935 8.92883 65.5C8.92883 34.3065 34.3061 8.92883 65.5005 8.92883C96.6937 8.92883 122.072 34.3065 122.072 65.5C122.072 96.6935 96.6937 122.071 65.5005 122.071Z" stroke="white" stroke-width="2" stroke-miterlimit="10"/>
<path d="M65.5 113.735C92.1395 113.735 113.735 92.1393 113.735 65.5C113.735 38.8608 92.1395 17.2654 65.5 17.2654C38.8605 17.2654 17.2649 38.8608 17.2649 65.5C17.2649 92.1393 38.8605 113.735 65.5 113.735Z" stroke="white" stroke-width="2" stroke-miterlimit="10"/>
<path d="M65.4999 104.789C87.1986 104.789 104.789 87.1985 104.789 65.5C104.789 43.8015 87.1986 26.2114 65.4999 26.2114C43.8012 26.2114 26.2109 43.8015 26.2109 65.5C26.2109 87.1985 43.8012 104.789 65.4999 104.789Z" stroke="white" stroke-width="2" stroke-miterlimit="10"/>
<path d="M65.5 96.5947C82.6733 96.5947 96.595 82.6731 96.595 65.5C96.595 48.3269 82.6733 34.4053 65.5 34.4053C48.3267 34.4053 34.405 48.3269 34.405 65.5C34.405 82.6731 48.3267 96.5947 65.5 96.5947Z" stroke="white" stroke-width="2" stroke-miterlimit="10"/>
</g>
<defs>
<clipPath id="clip0_1013_361">
<rect width="131" height="131" fill="white"/>
</clipPath>
</defs>
</svg>
