<svg width="45" height="45" viewBox="0 0 45 45" fill="none" xmlns="http://www.w3.org/2000/svg">
<g clip-path="url(#clip0_368_595)">
<path d="M45.009 22.5225C44.973 35.0145 34.902 45.0315 22.41 45C10.035 44.9685 -0.0179759 34.8705 2.41342e-05 22.491C0.0180241 10.0665 10.116 -0.018037 22.5225 -3.69762e-05C34.9515 0.017963 45.0405 10.1295 45.009 22.5225ZM40.878 33.4035C40.6395 33.282 40.545 33.2235 40.446 33.183C34.632 30.825 28.8225 28.4625 22.995 26.1315C22.6485 25.992 22.131 26.0685 21.762 26.2215C16.8705 28.2195 11.9925 30.249 7.11452 32.2695C6.18302 32.6565 5.25152 33.048 4.22102 33.48C8.46902 39.996 14.3325 43.6365 22.0365 43.785C30.186 43.9515 36.3825 40.266 40.878 33.4035ZM22.806 1.25996C23.031 2.84846 23.2245 4.23896 23.4225 5.62496C24.0975 10.422 24.7635 15.2235 25.4745 20.016C25.5375 20.4525 25.8075 20.97 26.145 21.2355C30.501 24.6555 34.8885 28.035 39.2715 31.4235C39.87 31.887 40.4775 32.337 41.1705 32.859C44.8335 25.38 44.7975 18.108 40.3785 11.1285C36.3645 4.80146 30.3975 1.67396 22.806 1.25996ZM3.91502 32.967C4.12202 32.8455 4.19852 32.814 4.26152 32.7645C9.14852 28.818 14.04 24.8805 18.9045 20.9115C19.1835 20.6865 19.377 20.2455 19.4355 19.8765C20.1555 15.3135 20.844 10.7415 21.537 6.16946C21.7755 4.58096 22.005 2.98796 22.2615 1.24646C14.679 1.66496 8.68502 4.75196 4.66652 11.079C0.184524 18.1305 0.166524 25.4745 3.91502 32.967Z" fill="white"/>
</g>
<defs>
<clipPath id="clip0_368_595">
<rect width="45" height="45" fill="white"/>
</clipPath>
</defs>
</svg>
