<svg width="46" height="46" viewBox="0 0 46 46" fill="none" xmlns="http://www.w3.org/2000/svg">
<path d="M36.6634 21.6037L36.6741 21.0932H36.1635H29.2991C28.3299 21.0932 27.4402 20.1803 27.4402 18.9207L27.4402 2.67242C27.4402 1.41293 28.3299 0.5 29.2991 0.5L43.6412 0.5C44.6104 0.5 45.5001 1.41298 45.5001 2.67242V15.4466C45.5001 21.6813 45.015 26.5593 44.0595 30.1112L44.5423 30.2411L44.0595 30.1113C43.1093 33.6439 41.3523 36.8124 38.781 39.6259C36.676 41.927 34.0909 43.8256 31.0185 45.3294C30.1423 45.7577 29.0798 45.358 28.6279 44.281L26.9299 40.22C26.4497 39.0686 26.9184 37.7433 27.8613 37.2735L27.8622 37.2731C30.5616 35.9219 32.6096 34.1943 33.9701 32.0834C35.6874 29.4206 36.5725 25.9159 36.6634 21.6037Z" stroke="#494949"/>
<path d="M10.4339 21.0932L10.4231 21.6037C10.3323 25.9159 9.44719 29.4206 7.72985 32.0834C6.36935 34.1943 4.32129 35.9219 1.62199 37.2731L1.62111 37.2735C0.678125 37.7433 0.209497 39.0686 0.689642 40.22L2.38289 44.2703L10.4339 21.0932ZM10.4339 21.0932H9.92324M10.4339 21.0932H9.92324M9.92324 21.0932H3.05884C2.08967 21.0932 1.19994 20.1803 1.19994 18.9208L1.19994 2.67242C1.19994 1.41293 2.08968 0.5 3.05884 0.5L17.401 0.5C18.3702 0.5 19.2599 1.41292 19.2599 2.67242L19.2599 15.4466C19.2599 21.7301 18.7746 26.6234 17.8195 30.1478C16.8697 33.6527 15.104 36.8103 12.5092 39.6243M9.92324 21.0932L12.5092 39.6243M12.5092 39.6243C10.3884 41.9224 7.81596 43.8213 4.78138 45.3195M12.5092 39.6243L4.78138 45.3195M4.78138 45.3195C3.90661 45.7511 2.83561 45.3482 2.38316 44.271L4.78138 45.3195Z" stroke="#494949"/>
</svg>
