<svg width="30" height="30" viewBox="0 0 30 30" fill="none" xmlns="http://www.w3.org/2000/svg">
<g opacity="0.25">
<path d="M5.90438 16.4175L5.91513 15.907C5.97481 13.0746 6.55632 10.7541 7.69932 8.98184C8.60692 7.57362 9.96902 6.42799 11.7511 5.53595L11.7519 5.53551C12.2731 5.27591 12.5595 4.51604 12.2766 3.83695L5.90438 16.4175ZM5.90438 16.4175L6.41502 16.4175L10.8918 16.4175C11.4081 16.4175 11.9302 16.914 11.9302 17.6604L11.9302 28.2571C11.9302 29.0035 11.4081 29.5 10.8918 29.5L1.53824 29.5C1.02201 29.5 0.499817 29.0035 0.499817 28.2571L0.499818 19.9261C0.499818 15.8666 0.815996 12.7026 1.4334 10.4074L0.950562 10.2775L1.4334 10.4074C2.04559 8.13145 3.17741 6.08951 4.83647 4.27423C6.19318 2.79114 7.86096 1.56557 9.84705 0.593488C10.3163 0.364277 10.9075 0.564993 11.1691 1.18813C11.1691 1.18821 11.1692 1.18829 11.1692 1.18837L12.2764 3.83651L5.90438 16.4175Z" stroke="#E5E5E5"/>
<path d="M23.0284 15.907L23.0177 16.4175L23.5283 16.4175L28.0051 16.4175C28.5214 16.4175 29.0435 16.914 29.0435 17.6604L29.0435 28.2571C29.0435 29.0035 28.5214 29.5 28.0051 29.5L18.6515 29.5C18.1353 29.5 17.6131 29.0035 17.6131 28.2571L17.6131 19.9261C17.6131 15.8345 17.9294 12.6608 18.5464 10.3839C19.1582 8.12636 20.2955 6.09154 21.9698 4.27586C23.3374 2.794 24.9974 1.56802 26.9588 0.599697C27.4267 0.368906 28.0235 0.571251 28.2855 1.19508C28.2855 1.19517 28.2855 1.19526 28.2856 1.19535L29.3897 3.83651C29.3898 3.83662 29.3898 3.83674 29.3899 3.83685C29.3899 3.83687 29.3899 3.8369 29.3899 3.83692C29.6728 4.51602 29.3864 5.27591 28.8652 5.5355L28.8643 5.53594C27.0824 6.42796 25.7203 7.57354 24.8127 8.9817C23.6697 10.754 23.0881 13.0745 23.0284 15.907Z" stroke="#E5E5E5"/>
</g>
</svg>
