<svg width="80" height="80" viewBox="0 0 80 80" xmlns="http://www.w3.org/2000/svg">
<path d="M46.192 62.088H33.776C32.816 62.088 32.032 62.864 32.032 63.832C32.032 64.792 32.808 65.576 33.776 65.576H46.192C47.152 65.576 47.936 64.8 47.936 63.832C47.936 62.864 47.16 62.088 46.192 62.088ZM36.784 72.232C37.024 73.792 38.352 75 39.984 75C41.616 75 42.952 73.8 43.184 72.232C45.32 72.104 47.016 70.352 47.016 68.192H32.96C32.96 70.36 34.648 72.112 36.784 72.232ZM39.992 15.048C41.28 15.048 42.312 14.008 42.312 12.72V7.328C42.312 6.048 41.28 5 39.992 5C38.712 5 37.664 6.04 37.664 7.328V12.736C37.664 14.008 38.712 15.048 39.992 15.048ZM24.752 18.432C25.208 19.064 25.912 19.392 26.632 19.392C27.104 19.392 27.584 19.248 28 18.952C29.04 18.2 29.264 16.744 28.52 15.712L25.344 11.336C24.592 10.304 23.136 10.072 22.096 10.824C21.056 11.576 20.832 13.032 21.576 14.064L24.752 18.432ZM12.52 28.968L17.656 30.64C17.896 30.72 18.136 30.752 18.376 30.752C19.352 30.752 20.264 30.128 20.584 29.152C20.984 27.936 20.312 26.624 19.096 26.224L13.96 24.552C12.728 24.152 11.432 24.824 11.032 26.04C10.632 27.264 11.296 28.568 12.52 28.968ZM67.456 41.936L62.32 40.272C61.104 39.88 59.792 40.544 59.392 41.76C58.992 42.976 59.664 44.288 60.88 44.688L66.016 46.352C66.256 46.432 66.488 46.464 66.728 46.464C67.704 46.464 68.616 45.84 68.936 44.864C69.352 43.64 68.68 42.328 67.456 41.936ZM17.664 40.264L12.528 41.928C11.312 42.328 10.64 43.64 11.04 44.856C11.352 45.832 12.264 46.464 13.248 46.464C13.488 46.464 13.728 46.432 13.968 46.352L19.104 44.688C20.32 44.288 20.992 42.976 20.592 41.76C20.192 40.536 18.896 39.872 17.664 40.264ZM61.608 30.752C61.848 30.752 62.088 30.72 62.32 30.64L67.456 28.976C68.672 28.576 69.344 27.264 68.944 26.048C68.544 24.832 67.232 24.168 66.016 24.56L60.88 26.224C59.664 26.624 58.992 27.928 59.392 29.152C59.72 30.128 60.624 30.752 61.608 30.752ZM57.888 10.816C56.848 10.064 55.4 10.288 54.64 11.336L51.464 15.712C50.704 16.744 50.936 18.2 51.984 18.952C52.4 19.256 52.872 19.392 53.352 19.392C54.072 19.392 54.784 19.064 55.232 18.432L58.408 14.056C59.16 13.024 58.928 11.568 57.888 10.816ZM47.632 59.424V54C49.232 51.336 51.304 48.256 53.168 45.888C55.416 43.04 56.76 39.448 56.76 35.544C56.76 26.272 49.248 18.768 39.992 18.768C30.72 18.768 23.216 26.28 23.216 35.544C23.216 39.448 24.56 43.04 26.808 45.888C28.776 48.384 30.64 51.112 32.256 53.856V59.424H47.632Z"/>
</svg>
