<svg width="70" height="70" viewBox="0 0 70 70" xmlns="http://www.w3.org/2000/svg">
<g clip-path="url(#clip0_110_193)">
<path d="M65.2668 3.06885H4.7332C2.12324 3.06885 0 5.19223 0 7.80205V48.0932C0 50.703 2.12324 52.8264 4.7332 52.8264H12.8516C13.4179 52.8264 13.877 52.3673 13.877 51.801C13.877 51.2347 13.4179 50.7756 12.8516 50.7756H4.7332C3.25418 50.7756 2.05078 49.5722 2.05078 48.0932V44.9119C2.81381 45.4388 3.73789 45.7483 4.7332 45.7483H65.2668C66.2621 45.7483 67.1862 45.4388 67.9492 44.9119V48.0932C67.9492 49.5722 66.7458 50.7756 65.2668 50.7756H38.6924C38.6898 50.7756 38.687 50.7756 38.6844 50.7756H31.3161C31.313 50.7756 31.3098 50.7756 31.3067 50.7756H16.9531C16.3868 50.7756 15.9277 51.2347 15.9277 51.801C15.9277 52.3673 16.3868 52.8264 16.9531 52.8264H29.7467L26.7911 59.6864H24.9352C22.4953 59.6864 20.5103 61.6714 20.5103 64.1114V64.7767C20.5103 65.9647 21.4767 66.9313 22.6648 66.9313H47.3354C48.5234 66.9313 49.49 65.9648 49.49 64.7767V64.1114C49.49 61.6714 47.505 59.6864 45.0651 59.6864H43.2091L40.2536 52.8264H65.2668C67.8768 52.8264 70 50.703 70 48.0932V7.80205C70 5.19223 67.8768 3.06885 65.2668 3.06885ZM47.4391 64.1114V64.7767C47.4391 64.8339 47.3926 64.8805 47.3353 64.8805H22.6647C22.6075 64.8805 22.5609 64.834 22.5609 64.7767V64.1114C22.5609 62.8022 23.626 61.7372 24.935 61.7372H27.46C27.4617 61.7372 27.4635 61.7375 27.4653 61.7375C27.4665 61.7375 27.4678 61.7372 27.469 61.7372H42.531C42.5322 61.7372 42.5335 61.7375 42.5347 61.7375C42.5365 61.7375 42.5383 61.7372 42.54 61.7372H45.065C46.374 61.7372 47.4391 62.8024 47.4391 64.1114ZM40.976 59.6864H29.024L31.9796 52.8264H38.0204L40.976 59.6864ZM65.2668 43.6977H4.7332C3.25418 43.6977 2.05078 42.4943 2.05078 41.0153V7.80205C2.05078 6.32303 3.25418 5.11963 4.7332 5.11963H65.2668C66.7458 5.11963 67.9492 6.32303 67.9492 7.80205V41.0151C67.9492 42.4943 66.7458 43.6977 65.2668 43.6977Z"/>
<path d="M32.4847 13.2105L33.974 12.3637V15.9672C33.974 16.5335 34.4331 16.9926 34.9994 16.9926C35.5657 16.9926 36.0248 16.5335 36.0248 15.9672V12.3638L37.5141 13.2107C37.6742 13.3017 37.8482 13.3449 38.0201 13.3449C38.3768 13.3449 38.7235 13.1584 38.9123 12.8262C39.1923 12.3339 39.0202 11.7078 38.5279 11.428C35.2165 9.5455 35.4764 9.68728 35.3738 9.64736C35.0812 9.53251 34.7584 9.56122 34.4985 9.7071C34.4966 9.7082 34.4945 9.70888 34.4926 9.70997L31.4711 11.4281C30.9788 11.708 30.8067 12.334 31.0867 12.8263C31.3664 13.3184 31.9924 13.4907 32.4847 13.2105Z" />
<path d="M24.2067 32.8867L21.0852 34.6844V32.9825C21.0852 32.4163 20.6261 31.9572 20.0599 31.9572C19.4936 31.9572 19.0345 32.4163 19.0345 32.9825C19.035 36.631 18.8783 36.9749 19.5556 37.3513L22.5529 39.1015C22.7155 39.1964 22.8934 39.2415 23.069 39.2415C23.4216 39.2415 23.7648 39.0594 23.9554 38.7331C24.241 38.244 24.076 37.6161 23.5869 37.3306L22.1038 36.4645L25.2301 34.6639C25.7208 34.3813 25.8895 33.7543 25.6069 33.2636C25.3243 32.7727 24.6974 32.6042 24.2067 32.8867Z"/>
<path d="M49.9397 31.9575C49.3734 31.9575 48.9143 32.4166 48.9143 32.9829V34.6848L45.7929 32.8871C45.3022 32.6045 44.6752 32.7732 44.3926 33.2639C44.11 33.7546 44.2787 34.3815 44.7694 34.6641L47.8957 36.4647L46.4126 37.3308C45.9236 37.6163 45.7585 38.2444 46.0441 38.7333C46.2347 39.0598 46.5779 39.2418 46.9305 39.2418C47.106 39.2418 47.284 39.1967 47.4466 39.1018C50.2333 37.4275 50.7669 37.3634 50.9326 36.7114C51.0002 36.4467 50.9433 36.4624 50.965 32.9829C50.965 32.4166 50.5059 31.9575 49.9397 31.9575Z"/>
<path d="M42.975 22.6424L35.5122 18.3333C35.1949 18.1501 34.804 18.1501 34.4867 18.3333L27.0239 22.6424C26.7067 22.8256 26.5112 23.1641 26.5112 23.5304C26.5112 23.5561 26.5144 23.5814 26.5163 23.6068V32.1478C26.5163 32.5142 26.7118 32.8527 27.029 33.0358L34.413 37.2985C34.4356 37.3141 34.4573 37.3304 34.4812 37.3442C34.6398 37.4358 34.8169 37.4816 34.9939 37.4816C34.9957 37.4816 34.9975 37.4813 34.9994 37.4813C35.0013 37.4813 35.003 37.4816 35.0049 37.4816C35.1819 37.4816 35.359 37.4358 35.5176 37.3442C35.5415 37.3304 35.5634 37.314 35.5858 37.2985L42.9698 33.0358C43.2872 32.8527 43.4825 32.5142 43.4825 32.1478V23.6068C43.4845 23.5814 43.4876 23.5561 43.4876 23.5304C43.4877 23.1641 43.2924 22.8256 42.975 22.6424ZM34.9995 20.4054L40.409 23.5288L34.9995 26.6517L29.5901 23.5289L34.9995 20.4054ZM28.5672 25.3094L33.9687 28.4282V34.6741L28.5672 31.5558V25.3094ZM36.0304 34.6741V28.4282L41.4319 25.3094V31.5558L36.0304 34.6741Z"/>
<path d="M11.3477 8.97925H6.5625C5.46943 8.97925 4.58008 9.8686 4.58008 10.9617V35.2392C4.58008 36.3323 5.46943 37.2216 6.5625 37.2216H11.3477C12.4407 37.2216 13.3301 36.3323 13.3301 35.2392V10.9617C13.3301 9.8686 12.4407 8.97925 11.3477 8.97925ZM11.2793 35.1709H6.63086V11.03H11.2793V35.1709Z"/>
<path d="M8.56787 16.0974H9.34266C9.90894 16.0974 10.368 15.6383 10.368 15.072C10.368 14.5057 9.90894 14.0466 9.34266 14.0466H8.56787C8.00158 14.0466 7.54248 14.5057 7.54248 15.072C7.54248 15.6383 8.00145 16.0974 8.56787 16.0974Z"/>
<path d="M8.56787 21.4498H9.34266C9.90894 21.4498 10.368 20.9907 10.368 20.4244C10.368 19.8581 9.90894 19.399 9.34266 19.399H8.56787C8.00158 19.399 7.54248 19.8581 7.54248 20.4244C7.54248 20.9907 8.00145 21.4498 8.56787 21.4498Z"/>
<path d="M8.56787 26.8025H9.34266C9.90894 26.8025 10.368 26.3434 10.368 25.7771C10.368 25.2108 9.90894 24.7517 9.34266 24.7517H8.56787C8.00158 24.7517 7.54248 25.2108 7.54248 25.7771C7.54248 26.3434 8.00145 26.8025 8.56787 26.8025Z"/>
<path d="M8.56787 32.1549H9.34266C9.90894 32.1549 10.368 31.6958 10.368 31.1295C10.368 30.5632 9.90894 30.1041 9.34266 30.1041H8.56787C8.00158 30.1041 7.54248 30.5632 7.54248 31.1295C7.54248 31.6958 8.00145 32.1549 8.56787 32.1549Z"/>
<path d="M63.7854 7.66528H50.6344C49.692 7.66528 48.9254 8.43187 48.9254 9.37427V20.5237C48.9254 21.4661 49.692 22.2327 50.6344 22.2327H63.7854C64.7278 22.2327 65.4944 21.4661 65.4944 20.5237V9.37427C65.4944 8.432 64.7276 7.66528 63.7854 7.66528ZM63.4436 20.1819H50.9762V9.71607H63.4436V20.1819Z"/>
<path d="M53.9294 14.1971H57.074C57.6403 14.1971 58.0994 13.738 58.0994 13.1718C58.0994 12.6055 57.6403 12.1464 57.074 12.1464H53.9294C53.3632 12.1464 52.9041 12.6055 52.9041 13.1718C52.9041 13.738 53.363 14.1971 53.9294 14.1971Z"/>
<path d="M53.9294 17.7518H60.4919C61.0582 17.7518 61.5173 17.2927 61.5173 16.7264C61.5173 16.1602 61.0582 15.701 60.4919 15.701H53.9294C53.3632 15.701 52.9041 16.1602 52.9041 16.7264C52.9041 17.2927 53.363 17.7518 53.9294 17.7518Z"/>
</g>
<defs>
<clipPath id="clip0_110_193">
<rect width="70" height="70"/>
</clipPath>
</defs>
</svg>
