<svg width="62" height="52" viewBox="0 0 62 52" xmlns="http://www.w3.org/2000/svg">
<path d="M61.303 2.144C60.666 0.702001 59.455 0.177002 57.936 0.177002C48.962 0.198002 39.995 0.198001 31.007 0.198001H4.281C1.607 0.198001 0.375 1.409 0.375 4.069V48.211C0.375 49.233 0.606 50.136 1.355 50.871C2.125 51.641 3.105 51.816 4.148 51.816H58.013C60.246 51.816 61.611 50.486 61.611 48.309C61.632 33.448 61.632 18.566 61.611 3.684C61.611 3.166 61.513 2.606 61.303 2.144ZM17.28 4.223C18.358 4.223 18.918 4.762 18.918 5.84C18.918 6.939 18.414 7.457 17.322 7.478C16.202 7.478 15.705 6.995 15.705 5.882C15.698 4.748 16.181 4.244 17.28 4.223ZM11.659 4.223C12.758 4.223 13.241 4.72 13.241 5.861C13.241 7.016 12.8 7.457 11.659 7.478C10.56 7.478 10.042 6.96 10.042 5.861C10.042 4.783 10.581 4.244 11.659 4.223ZM5.996 4.223C7.053 4.223 7.634 4.762 7.648 5.84C7.669 6.918 7.13 7.457 6.052 7.478C4.918 7.478 4.414 6.995 4.393 5.903C4.379 4.804 4.918 4.244 5.996 4.223ZM60.015 48.001C60.015 49.639 59.476 50.157 57.859 50.157H4.071C2.531 50.157 1.971 49.618 1.971 48.078V11.538H60.008L60.015 48.001ZM28.998 44.592C31.322 44.032 32.428 41.603 31.343 39.468C31.28 39.342 31.266 39.111 31.343 39.006C32.253 37.76 33.177 36.535 34.108 35.31C34.171 35.233 34.339 35.17 34.437 35.198C35.424 35.443 36.334 35.254 37.216 34.722C37.314 34.792 37.398 34.841 37.475 34.897C38.686 35.807 39.897 36.71 41.094 37.627C41.185 37.697 41.22 37.9 41.22 38.04C41.22 38.467 41.136 38.901 41.185 39.314C41.367 40.798 42.459 41.939 43.957 42.261C45.35 42.562 46.855 41.904 47.618 40.672C48.409 39.391 48.325 37.788 47.387 36.626C47.219 36.416 47.212 36.276 47.331 36.052C48.584 33.567 49.83 31.075 51.069 28.576C51.195 28.324 51.321 28.233 51.629 28.247C53.554 28.331 55.192 26.7 55.192 24.747C55.192 22.801 53.533 21.149 51.622 21.233C50.187 21.296 49.088 21.968 48.493 23.284C47.919 24.558 48.066 25.797 48.934 26.924C49.074 27.106 49.137 27.239 49.018 27.477C47.744 29.997 46.477 32.531 45.196 35.051C45.133 35.17 44.937 35.296 44.804 35.296C44.132 35.289 43.509 35.422 42.928 35.758C42.739 35.87 42.627 35.842 42.459 35.716C41.297 34.834 40.135 33.959 38.959 33.098C38.707 32.909 38.623 32.748 38.693 32.419C39.225 30.011 36.936 27.778 34.535 28.345C32.19 28.898 31.084 31.348 32.19 33.497C32.246 33.609 32.246 33.826 32.176 33.924C31.273 35.156 30.356 36.374 29.432 37.585C29.355 37.683 29.166 37.732 29.033 37.732C28.55 37.739 28.06 37.648 27.591 37.718C25.694 38.005 24.413 39.923 24.784 41.855C25.169 43.752 27.136 45.033 28.998 44.592ZM12.863 35.716C16.671 36.997 20.192 35.583 22.096 33.532C22.082 33.511 22.075 33.483 22.054 33.462L19.786 31.495C18.365 30.263 16.937 29.038 15.523 27.799C15.39 27.68 15.278 27.505 15.222 27.33C14.557 25.307 13.913 23.284 13.255 21.261C13.003 20.484 12.751 19.714 12.492 18.916C9.454 20.071 6.794 23.228 6.787 27.323C6.794 31.026 9.279 34.512 12.863 35.716ZM16.517 27.351C16.909 27.687 17.294 28.023 17.679 28.359C18.925 29.437 20.171 30.515 21.424 31.593C21.872 31.985 22.327 32.37 22.775 32.755C26.45 28.044 24.378 21.863 20.465 19.693C20.444 19.714 20.423 19.728 20.409 19.749C19.093 22.178 17.77 24.614 16.447 27.043C16.377 27.19 16.419 27.267 16.517 27.351ZM19.576 19.196C18.022 18.307 15.208 18.062 13.458 18.636C14.256 21.107 15.047 23.571 15.859 26.091C17.126 23.753 18.351 21.471 19.576 19.196Z"/>
</svg>
